<svg width="800" height="470" viewBox="0 0 800 470" xmlns="http://www.w3.org/2000/svg" xmlns:xlink="http://www.w3.org/1999/xlink"><title>Group 395</title><desc>Created with Sketch.</desc><defs><path id="path-1" d="M0 469.208211H799.704483V0H0z"/></defs><g id="Page-1" stroke="none" stroke-width="1" fill="none" fill-rule="evenodd"><g id="02-01-Services" transform="translate(-320.000000, -262.000000)"><g id="Hero" transform="translate(0.000000, 150.000000)"><g id="Group-395" transform="translate(320.000000, 112.000000)"><path d="M79.6085911 432.292958 82.4895314 448.328167 92.4197289 450.947833 97.7014527 451.11535C97.7014527 451.11535 88.0287305 446.859728 86.1220213 444.671327 83.2271634 441.353083 84.0343834 428.197725 84.0343834 428.197725L79.6085911 432.292958z" id="Fill-1" fill="#fff"/><path d="M82.3294905 450.480086 84.4339595 450.650793 85.56173 449.14712 94.4539019 451.863901 100.113834 452.32154C100.113834 452.32154 99.6887245 451.398997 99.3444207 451.108432 98.3150227 450.244002 94.2114839 448.645896 94.2114839 448.645896 94.2114839 448.645896 94.2922899 449.982494 93.6493553 450.149569 92.9993941 450.316643 86.8546258 448.562358 85.400118 447.973965 82.8951324 446.967884 82.3189506 446.165199 82.1643652 446.306849 81.7638486 446.680952 82.3294905 450.480086 82.3294905 450.480086" id="Fill-3" fill="#161711"/><path d="M74.9441546 330.564456 79.9474452 383.05289 85.639545 433.27466 78.0900592 434.228679C78.0900592 434.228679 68.7482988 383.794518 67.7133716 379.442243 66.6750174 375.089968 56.1406919 340.285697 59.9171482 331.100656 63.6970314 321.922579 74.9441546 330.564456 74.9441546 330.564456" id="Fill-5" fill="#163f59"/><path d="M61.5157295 287.6765C61.5157295 294.006398 56.387189 299.135312 50.0586462 299.135312 43.7266452 299.135312 38.5981048 294.006398 38.5981048 287.6765 38.5981048 281.346601 43.7266452 276.217687 50.0586462 276.217687 56.387189 276.217687 61.5157295 281.346601 61.5157295 287.6765" id="Fill-7" fill="#ad5c49"/><path d="M71.1652557 265.344232C71.1652557 270.016448 67.3255783 273.805306 62.5871001 273.805306L60.4443588 269.785852C55.7022854 269.785852 51.8662033 265.996994 51.8662033 261.317684V258.146111C51.8662033 253.470348 55.7022854 249.68149 60.4443588 249.68149H62.5871001C67.3255783 249.68149 71.1652557 253.470348 71.1652557 258.146111V265.344232z" id="Fill-9" fill="#ad5c49"/><path d="M50.6600125 261.245409V258.090011C50.6600125 253.446815 54.4227548 249.68149 59.0741671 249.68149H61.1759426C63.0978681 249.68149 64.864629 250.330198 66.2822694 251.419604 66.4303811 253.249382 66.2999018 255.19198 65.8449873 257.15573 64.4343998 263.286723 60.3260636 267.845304 55.7592864 268.980543 52.7653144 267.693704 50.6600125 264.71811 50.6600125 261.245409" id="Fill-11" fill="#ad5c49"/><path d="M60.3095387 273.800064C60.3095387 279.796655 55.4479018 284.661023 49.4538217 284.661023 43.4597416 284.661023 38.5981048 279.796655 38.5981048 273.800064 38.5981048 267.803473 43.4597416 262.949589 49.4538217 262.949589 55.4479018 262.949589 60.3095387 267.803473 60.3095387 273.800064" id="Fill-13" fill="#ad5c49"/><path d="M62.7219203 287.67471C62.7219203 294.006317 57.5909518 299.135312 51.2613555 299.135312 44.935264 299.135312 39.8042955 294.006317 39.8042955 287.67471 39.8042955 281.346682 44.935264 276.217687 51.2613555 276.217687 57.5909518 276.217687 62.7219203 281.346682 62.7219203 287.67471" id="Fill-15" fill="#954f3f"/><path d="M49.3490149 266.417815C53.3178441 263.514446 57.9329966 263.390899 59.6598917 266.134382 61.3834206 268.881499 59.5589037 273.460028 55.5900745 276.363396 51.6178791 279.270398 47.0027266 279.39758 45.2791978 276.650463 43.5556689 273.903345 45.3768195 269.324817 49.3490149 266.417815" id="Fill-17" fill="#954f3f"/><path d="M66.4527509 253.300063C66.4457703 254.059728 66.3794541 254.833206 66.2538025 255.620496 65.4126345 260.910533 62.1631433 264.929855 58.609994 265.423638 58.501794 267.820038 58.0131487 269.971274 57.4302647 271.801378 56.7705935 273.890459 54.2994445 276.096943 54.2994445 276.096943 53.6956185 279.791681 66.4038864 285.212932 66.1037186 284.615559 65.8000604 284.018185 62.6727306 279.670825 61.6465755 275.67222 60.9345495 272.89944 61.8559949 270.603178 62.9240339 269.018239 64.9135183 266.704711 67.7965255 266.742694 67.7965255 266.742694 68.072261 266.742694 68.3165837 266.618385 68.4945902 266.438828 68.6621257 265.889797 68.7528741 265.313141 68.7528741 264.715768V257.920212C68.7528741 256.038312 67.8523707 254.370501 66.4527509 253.300063" id="Fill-19" fill="#fff"/><path d="M68.997459 328.976062 74.783828 330.496272C74.783828 330.496272 71.0154086 313.635127 69.9590323 307.05102 68.9094276 300.456501 69.0245455 298.304605 69.376671 296.263775 69.7287964 294.229886 70.6598974 291.835034 69.376671 289.55819 68.0900588 287.277874 66.0856524 283.505115 65.2865986 283.203155 63.9999864 282.727656 62.5948704 282.130678 61.5452657 281.047789 60.9696761 280.457753 68.997459 328.976062 68.997459 328.976062" id="Fill-21" fill="#ffc40e"/><path d="M51.8662033 430.613368 52.6464792 447.199154 62.3743738 449.749747 67.5466834 449.909159C67.5466834 449.909159 58.3435159 446.020891 56.8954055 443.577727c-1.9285423000000037-3.2402229999999577.0-14.173811.0-14.173811L51.8662033 430.613368z" id="Fill-23" fill="#fff"/><path d="M52.1651329 450.86379 54.233151 451.046009 55.3448402 449.40604 63.2509528 451.961064 69.9590649 452.32154C69.9590649 452.32154 69.9487075 451.727349 69.6863213 451.457982 68.688563 450.451817 63.765368 448.772236 63.765368 448.772236 63.765368 448.772236 63.9621577 450.495392 63.3269067 450.681572 62.6916557 450.86379 56.6153421 448.772236 55.1860274 448.130509 52.7244299 447.029274 52.158228 446.153832 52.0097726 446.308322 51.6127408 446.712372 52.1651329 450.86379 52.1651329 450.86379" id="Fill-25" fill="#161711"/><path d="M50.1981896 332.233325 51.6090771 378.400202C51.6090771 378.400202 49.7449335 390.920508 49.5915762 395.090442 49.25419 404.491176 49.6426953 432.682871 49.6426953 432.682871L57.7672262 433.022488C57.7672262 433.022488 63.4891588 382.055459 64.228682 377.640441 64.9647972 373.221921 73.2733569 337.71621 68.4749762 328.882672 63.6731876 320.052636 50.1981896 332.233325 50.1981896 332.233325" id="Fill-27" fill="#194866"/><path d="M71.1652557 330.6547C71.1652557 330.6547 68.251496 314.705529 66.9580539 306.652195 65.6646117 298.598861 62.1076458 283.297177 61.7807704 281.361717 61.4574099 279.429757 60.325648 276.85031 60.325648 276.85031 60.325648 276.85031 57.2537229 274.596356 54.5051583 275.079346 51.7530789 275.565836 49.4860404 281.68721 48.3542785 287.644087 47.2225166 293.604464 55.4717251 310.194122 55.4717251 311.643092 55.4717251 313.095562 49.6512354 325.33131 49.6512354 328.880237V332.908654C49.6512354 332.908654 64.047809 325.978797 71.1652557 330.6547" id="Fill-29" fill="#d1dbea"/><path id="Fill-31" fill="#b0bfde" d="M55.5472916 272.599115 58.0038021 274.044459 61.5157295 276.316707 60.8427633 279.83626 54.2785848 274.273769z"/><path d="M41.2364679 312.403411C41.2364679 312.403411 46.4464019 319.258664 49.1802242 318.987203 50.036938 318.904733 49.9846993 318.890988 51.8478776 318.533622 53.7110558 318.179692 54.0732438 318.196873 55.5498561 318.001008 57.0438812 317.801708 57.2180101 317.818889 57.2180101 317.818889c0 0 0 .8315640000000144-.5606948000000003 1.0514819999999645C56.1523417 319.062799 54.8951317 319.224302 54.4702574 319.399549 54.0523483 319.578232 55.5324432 319.286153 57.7578094 319.4614 59.9831755 319.640084 62.1458554 320.093664 63.068738 320.351381 63.6538108 320.512883 63.7304275 320.547245 63.7304275 320.578171 63.7304275 320.846196 63.7095321 321.093604 63.4378911 321.145147 63.2010759 321.186381 62.3548099 321.121093 62.403566 321.162328 62.5985903 321.313522 63.9219692 321.749921 64.1483367 321.804901 64.3886344 321.863316 64.7194792 321.932041 64.9214686 322.004201 65.3324126 322.145086 65.1373883 322.636465 64.4304253 322.828893 64.4199776 322.835766 64.2632617 323.175951 64.047342 323.248112 63.9393821 323.28591 63.8592828 323.316836 63.7478404 323.347762 63.6224677 323.382124 63.4727169 323.382124 63.3473441 323.41305 62.8667486 323.523009 62.3861531 323.584861 61.9229705 323.612351 61.7349114 323.629532 60.07024 323.498956 60.07024 323.602042 60.07024 323.602042 61.3796886 323.897557 61.3553106 323.993771 61.3065545 324.213689 61.0523264 324.481714 60.8224764 324.464533 60.4010847 324.43017 59.7602907 324.382063 58.0190026 324.169018 56.0966205 323.928483 55.6926417 323.732618 53.2269777 324.028133 51.0817108 324.289286 51.2906654 324.725685 49.765297 324.148401 47.7210248 323.371816 40.2892072 317.68144 38.9066245 316.794896 37.5240417 315.908352 41.2364679 312.403411 41.2364679 312.403411" id="Fill-33" fill="#fff"/><path d="M37.9373211 306.567826 54.7527087 288.456431C54.7527087 288.456431 56.7889197 283.685336 56.6872844 281.256352 56.5646211 278.382576 53.0985064 276.217687 53.0985064 276.217687 53.0985064 276.217687 45.4373064 283.056372 36.363726 292.890456 27.2936503 302.73149 22.3310432 307.047367 27.2936503 310.883703 32.2527528 314.726988 40.1137187 319.640555 40.1137187 319.640555L43.1347408 311.96441 37.9373211 306.567826z" id="Fill-35" fill="#b0bfde"/><path d="M111.946661 442.474788C112.380196 441.983355 112.065235 440.694633 112.065235 440.694633 112.065235 440.694633 104.450591 439.91109 101.997601 440.447198 101.363973 440.584662 100.289401 441.093278 99.2741148 441.632823 99.1073707 441.722174 98.8035261 442.265156 98.6330766 442.357944 98.3292319 442.526337 98.1698987 442.244536 97.9105191 442.395746 97.2287213 442.790955 96.7544272 443.100248 96.7433109 443.13805 96.0763348 446.378757 96.9656363 447.688099 96.9656363 447.688099 96.9656363 447.688099 103.231506 449.49231 104.6618 448.289503 108.29682 445.244682 110.990662 443.547005 111.946661 442.474788" id="Fill-37" fill="#161711"/><path d="M135.093367 445.475406 136.129953 451.11535H141.652518C141.652518 451.11535 141.96031 450.312275 142.423767 450.312275 142.820004 450.312275 143.325915 451.11535 143.863667 451.11535H146.828375 157.915958C157.915958 451.11535 158.163607 449.929156 157.859353 449.520251 157.707226 449.306589 156.776774 448.945574 156.164729 448.76875 153.309693 447.928836 145.144364 445.320685 143.725691 442.484136 141.995688 439.028703 135.093367 445.475406 135.093367 445.475406" id="Fill-39" fill="#161711"/><path d="M140.54887 265.621525 141.880898 258.995073C141.880898 258.995073 146.587633 259.355867 147.50184 256.819597 149.35168 251.73634 147.805385 243.613132 146.691196 241.337634 143.51647 234.857642 142.173729 223.501583 127.335728 232.528561 121.693359 235.961456 130.40689 252.60796 131.056834 256.212321 131.699636 259.81311 129.771231 263.960447 129.771231 263.960447L133.24593 266.568161 140.54887 265.621525z" id="Fill-41" fill="#fff"/><path d="M113.381933 326.271605 112.931381 347.382943C112.931381 347.382943 105.683085 338.610009 104.979303 328.628135 104.275521 318.64987 112.924803 325.4885 113.381933 326.271605" id="Fill-43" fill="#dee7ec"/><path d="M122.678933 367.888186C122.678933 367.888186 124.836079 368.822387 118.478175 398.808485 113.897788 420.397348 109.980865 436.194162 108.150129 443.339921 107.440541 446.117847 106.642255 445.617256 106.642255 445.617256L100.585926 446.290586 97.7014527 443.805259 106.35842 394.877789 122.678933 367.888186z" id="Fill-45" fill="#163f59"/><path d="M161.669681 312.709993 149.567656 336.527226C149.567656 336.527226 172.663969 319.388054 171.213526 309.953517 169.763083 300.51898 161.669681 312.709993 161.669681 312.709993" id="Fill-47" fill="#fff"/><path d="M113.089864 271.392924C113.089864 271.392924 108.12033 274.423219 104.5396 299.025579 100.962377 323.624443 103.24198 322.691238 103.24198 322.691238L103.894297 328.297459 113.184555 329.290081 118.206696 308.050056 113.089864 271.392924z" id="Fill-49" fill="#f8c44f"/><path d="M137.128229 335.057168C137.128229 335.057168 123.357028 392.21299 112.540824 417.836756 106.204663 432.840424 106.144788 404.036629 106.144788 404.036629L115.992429 321.031156 144.742893 319.640555C144.742893 319.640555 141.481478 320.649976 137.128229 335.057168" id="Fill-51" fill="#163f59"/><path d="M126.650031 319.475814C126.650031 319.475814 137.060128 392.992255 138.155743 396.309366 141.854762 407.533545 147.565343 392.820439 148.87233 389.079046 150.179317 385.334146 152.359976 357.643632 151.92314 337.439409L151.486303 317.228174 126.650031 319.475814z" id="Fill-53" fill="#163f59"/><path d="M137.27341 379.319781C137.27341 379.319781 135.778009 388.081336 134.530724 399.275099 133.612025 407.500447 133.588554 430.981414 135.040367 447.29543 135.127543 448.294247 145.048824 445.252235 145.048824 445.252235c0 0 3.62115-45.651206 4.449320999999998-55.874189C150.333021 379.155064 143.493071 372.016148 137.27341 379.319781" id="Fill-55" fill="#163f59"/><path d="M113.381933 270.79739 125.627044 265.247265 129.005853 262.055242 142.022863 261.743398 144.303471 265.489032 154.390776 269.858353C154.390776 269.858353 156.878393 273.768669 154.71357 288.278181 152.317177 304.357426 151.808426 328.66375 151.808426 328.66375L113.655606 330.496272C113.655606 330.496272 116.964242 278.600501 113.381933 270.79739" id="Fill-57" fill="#f4da80"/><path d="M150.657388 270.648494C150.657388 270.648494 152.971673 268.085044 158.612519 275.037916 168.227355 286.883683 172.880964 301.576546 173.875355 304.420097 174.873324 307.263648 176.150294 311.287876 172.212075 316.014127 169.211015 319.627068 168.234509 320.846746 168.234509 320.846746L159.603334 315.514201 160.962574 312.954296 161.931927 311.68498C161.931927 311.68498 157.285472 301.576546 152.309938 292.411234 147.32725 283.256559 150.657388 270.648494 150.657388 270.648494" id="Fill-59" fill="#f4da80"/><path d="M142.579625 242.424576C142.579625 242.424576 140.899498 241.407209 140.642117 242.678038 140.381161 243.952387 141.289145 246.747507 142.061288 247.004489 142.837006 247.257951 143.094387 250.693766 143.094387 250.693766L141.024614 254.506253H130.572083C130.572083 254.506253 127.340521 253.105173 127.079566 250.820497 126.822184 248.52526 124.23765 232.377634 124.23765 232.377634L131.601608 228.561626C131.601608 228.561626 135.476622 226.653623 138.186273 225.893237 142.350841 224.720977 143.223077 226.907084 143.094387 228.051183 142.962121 229.195281 144.256176 229.325532 145.932728 229.325532 147.612854 229.325532 149.679052 230.596361 148.778218 231.360267 148.402871 231.673573 150.072273 232.68038 149.410947 233.894884 148.463641 235.626873 145.29285 236.190121 145.031894 238.992282 144.913928 240.25959 144.384867 244.455791 142.579625 242.424576" id="Fill-61" fill="#194866"/><mask id="mask-2" fill="#fff"><use xlink:href="#path-1"/></mask><g id="Clip-64"/><path id="Fill-63" fill="#b7bec0" mask="url(#mask-2)" d="M0 458.352494H7.23714464V443.878205H0z"/><path d="M343.252742 441.562715C343.27028 452.838802 352.060137 461.971066 362.877343 461.971066H760.935812C771.756526 461.971066 799.704483 454.902056 799.704483 426.237184V20.7954635C799.704483 6.60489818 787.568447-1.9283571 776.733703.373099684L356.542754 65.2377499C345.704502 67.5286977 342.540715 77.4070967 342.55818 88.679681L343.252742 441.562715z" id="Fill-65" fill="#cdd5d7" mask="url(#mask-2)"/><path d="M361.831578 460.764876C352.270581 460.764876 344.47949 452.598309 344.451452 442.554169L343.764371 89.0088701C343.73648 76.4659785 347.714387 69.5031646 355.908527 67.7378948L775.828373 2.73876345C776.837745 2.52117552 777.875155 2.41238155 778.919575 2.41238155c8.435968000000003.0 17.166336 6.95930443 17.166336 18.59674945V427.203692C796.085911 454.602224 769.046653 460.764876 759.57678 460.764876H361.831578z" id="Fill-66" fill="#484f59" mask="url(#mask-2)"/><path d="M461.971066 425.790639C461.971066 430.450979 458.187097 434.228679 453.524201 434.228679 448.864836 434.228679 445.084396 430.450979 445.084396 425.790639 445.084396 421.123238 448.864836 417.342008 453.524201 417.342008 458.187097 417.342008 461.971066 421.123238 461.971066 425.790639" id="Fill-67" fill="#30363d" mask="url(#mask-2)"/><path d="M394.019175 458.352494H389.99781 1.20619077C15.1441161 464.914278 38.4161002 469.208211 64.8041159 469.208211H389.99781 394.019175 719.223396C745.597376 469.208211 768.879887 464.914278 782.817812 458.352494H394.019175z" id="Fill-68" fill="#b7bec0" mask="url(#mask-2)"/><path d="M735.473041 464.156282H393.523066 389.294747 47.3447713C32.7439109 464.156282 19.0729298 462.921444 7.23714464 460.764876 21.357275 465.950491 41.6356629 469.208211 64.205414 469.208211H389.392998 393.417797 718.612398C741.178641 469.208211 761.453519 465.950491 775.580668 460.764876 763.741374 462.921444 750.073902 464.156282 735.473041 464.156282" id="Fill-69" fill="#484f59" mask="url(#mask-2)"/><path id="Fill-70" fill="#e5e8ec" mask="url(#mask-2)" d="M0 458.352494H398.042955V443.878205H0z"/><path id="Fill-71" fill="#cdd5d7" mask="url(#mask-2)" d="M399.249146 458.352494H782.817812V443.878205H399.249146z"/><path id="Fill-72" fill="#cdd5d7" mask="url(#mask-2)" d="M2.41238155 458.352494H126.650031V443.878205H2.41238155z"/><path id="Fill-73" fill="#b7bec0" mask="url(#mask-2)" d="M19.2990524 458.352494H48.247631V443.878205H19.2990524z"/><path id="Fill-74" fill="#b7bec0" mask="url(#mask-2)" d="M381.156285 458.352494H393.218192V443.878205H381.156285z"/><path id="Fill-75" fill="#e5e8ec" mask="url(#mask-2)" d="M393.218192 458.352494H407.692482V443.878205H393.218192z"/><path id="Fill-76" fill="#484f59" mask="url(#mask-2)" d="M762.312569 454.733922H779.19924V443.878205H762.312569z"/><path id="Fill-77" fill="#484f59" mask="url(#mask-2)" d="M750.250662 445.084396H733.363991V453.536384H734.85773V454.733922H748.746328V453.536384H750.250662z"/><path d="M722.508274 451.123679C722.508274 452.448747 721.495472 453.527731 720.24102 453.527731H687.387167C686.129161 453.527731 685.11636 452.448747 685.11636 451.123679V449.912187C685.11636 448.575761 686.129161 447.496777 687.387167 447.496777H720.24102C721.495472 447.496777 722.508274 448.575761 722.508274 449.912187V451.123679z" id="Fill-78" fill="#484f59" mask="url(#mask-2)"/><path d="M141.124321 443.878205V444.933622C141.124321 449.013023 144.629072 452.32154 148.95043 452.32154H209.28823C213.609588 452.32154 217.114339 449.013023 217.114339 444.933622V443.878205H141.124321z" id="Fill-79" fill="#cdd5d7" mask="url(#mask-2)"/><path d="M779.961182 4.8247631C779.075175 4.8247631 778.189167 4.91957015 777.331176 5.09865013L357.692999 70.1503314C353.234948 71.1229815 347.348078 74.1954322 347.382943 89.2205938L348.041475 425.820732C347.978439 426.221029 347.943419 426.624837 347.943419 427.04269 347.943419 431.54778 351.476942 435.213653 355.927989 435.420824V435.434869H787.336403C787.336403 435.427847 787.343407 435.406778 787.343407 435.392733 791.563322 434.971368 794.86221 431.410837 794.87972 427.084826 794.87972 427.077804 794.87972 427.077804 794.87972 427.077804V21.1912689C794.87972 10.9521076 787.297881 4.8247631 779.961182 4.8247631" id="Fill-80" fill="#30363d" mask="url(#mask-2)"/><path id="Fill-81" fill="#b0bfde" mask="url(#mask-2)" d="M776.786859 26.536197 353.413897 89.8812245V418.548199H776.786859z"/><path id="Fill-82" fill="#bcd0e2" mask="url(#mask-2)" d="M581.383953 56.6909664 457.480159 75.2425743 353.413897 347.34452V419.754389H442.528251z"/><path id="Fill-83" fill="#bcd0e2" mask="url(#mask-2)" d="M641.693492 47.0414402 599.626136 53.3263487 459.558685 418.548199H499.210236z"/><path id="Fill-84" fill="#484f59" mask="url(#mask-2)" d="M459.554133 419.754389 453.527731 435.434869H493.34364L499.36298 419.754389z"/><path id="Fill-85" fill="#484f59" mask="url(#mask-2)" d="M641.481648 46.7766309 650.136827 24.1238155 608.051236 30.6266299 599.476815 53.0723941z"/><path id="Fill-86" fill="#484f59" mask="url(#mask-2)" d="M581.266885 56.1836357 589.827289 33.7733417 465.474489 52.9997557 457.146303 74.783828z"/><path d="M354.01509 419.778465V347.382943L347.382943 364.814418 347.505243 425.829843C347.442346 426.22976 347.403909 426.633185 347.403909 427.050642 347.403909 431.551464 350.933134 435.213863 355.374366 435.420837V435.434869H436.710769L442.672014 419.778465H354.01509z" id="Fill-87" fill="#484f59" mask="url(#mask-2)"/><g id="Group-169" mask="url(#mask-2)"><g transform="translate(335.321035, 48.247631)"><path id="Fill-88" fill="#fff" d="M406.137933 381.803035.563943486 389.263228 2.05783492 55.8917601 406.137933.429131122z"/><path id="Fill-89" fill="#fefeff" d="M2.71360416 56.6146525 405.590874 1.30269906V380.815935L1.22321952 388.223567z"/><path id="Fill-90" fill="#fdfdfe" d="M3.36762001 57.3399977 405.038555 2.17871987V379.820775L1.88424894 387.182854z"/><path id="Fill-91" fill="#fcfdfe" d="M4.02198653 58.0621892 404.486586 3.05158699V378.832974L2.54562904 386.142492z"/><path id="Fill-92" fill="#fbfcfd" d="M4.67950917 58.7875345 403.941281 3.92760779V377.841318L3.20665847 385.101779z"/><path id="Fill-93" fill="#fafbfd" d="M5.33352502 59.5128797 403.388962 4.8036286V376.853167L3.87119468 384.057562z"/><path id="Fill-94" fill="#f9fafd" d="M5.98754087 60.2350712 402.84015 5.67649572V375.861862L4.5322241 383.0172z"/><path id="Fill-95" fill="#f8f9fc" d="M6.6450635 60.9604164 402.287831 6.55251652V374.870206L5.19325352 381.976487z"/><path id="Fill-96" fill="#f7f9fc" d="M7.29907935 61.682608 401.739019 7.42538365V373.882405L5.85428295 380.936125z"/><path id="Fill-97" fill="#f6f8fb" d="M7.95344588 62.4079532 401.190557 8.30140445V372.887246L6.51566305 379.895412z"/><path id="Fill-98" fill="#f5f7fb" d="M8.61096852 63.1332984 400.641745 9.17392117V371.899094L7.17669247 378.858203z"/><path id="Fill-99" fill="#f4f6fa" d="M9.26498437 63.85549 400.089426 10.0502924V370.907789L7.8377219 377.817841z"/><path id="Fill-100" fill="#f3f5fa" d="M9.91900021 64.5808352 399.540614 10.9228091V369.919638L8.49875132 376.777128z"/><path id="Fill-101" fill="#f2f5fa" d="M10.5765229 65.3030268 398.991801 11.7956762V368.928332L9.15978074 375.736766z"/><path id="Fill-102" fill="#f1f4f9" d="M11.2305387 66.028372 398.439482 12.671697v355.26498L9.82431695 374.696053z"/><path id="Fill-103" fill="#f0f3f9" d="M11.8845545 66.7537172 397.89067 13.5477178V366.948525L10.4853464 373.655341z"/><path id="Fill-104" fill="#eff2f8" d="M12.5420772 67.4759088 397.338351 14.420585V365.95722L11.1463758 372.614978z"/><path id="Fill-105" fill="#eef1f8" d="M13.1964437 68.201254 396.793396 15.2966058V364.965565L11.8077559 371.570762z"/><path id="Fill-106" fill="#edf1f8" d="M13.8504596 68.9234455 396.241077 16.1694729V363.97426L12.4652785 370.530399z"/><path id="Fill-107" fill="#ecf0f7" d="M14.5079822 69.6487908 395.692265 17.0454937V362.986108L13.126308 369.489687z"/><path id="Fill-108" fill="#ebeff7" d="M15.161998 70.374136 395.139946 17.9180104V361.994453L13.7873374 368.448974z"/><path id="Fill-109" fill="#eaeef6" d="M15.8160139 71.0963275 394.594641 18.7943816V361.003147L14.4483668 367.412116z"/><path id="Fill-110" fill="#e9edf6" d="M16.4735365 71.8216728 394.042322 19.6668983V360.014996L15.1093962 366.371403z"/><path id="Fill-111" fill="#e8edf6" d="M17.1279031 72.5438643 393.49386 20.5432695V359.023691L15.7742831 365.331041z"/><path id="Fill-112" fill="#e7ecf5" d="M17.7819189 73.2692095 392.941541 21.4192903V358.035539L16.4353125 364.290328z"/><path id="Fill-113" fill="#e6ebf5" d="M18.4359348 73.9945547 392.392729 22.2918071V357.04038L17.096342 363.249615z"/><path id="Fill-114" fill="#e5eaf4" d="M19.0934574 74.7167463 391.843917 23.1681783V356.052579L17.7573714 362.209253z"/><path id="Fill-115" fill="#e4e9f4" d="M19.7474732 75.4420915 391.291598 24.040695V355.060923L18.4184008 361.16854z"/><path id="Fill-116" fill="#e3e9f3" d="M20.4018398 76.1642831 390.743136 24.9170662V354.073122L19.0797809 360.128178z"/><path id="Fill-117" fill="#e2e8f3" d="M21.0593624 76.8896283 390.194324 25.7895829V353.081467L19.7408103 359.083961z"/><path id="Fill-118" fill="#e1e7f3" d="M21.7133783 77.6118198 389.645512 26.66245V352.090161L20.4018398 358.043599z"/><path id="Fill-119" fill="#e0e6f2" d="M22.3673941 78.3371651 389.093193 27.5384708V351.10201L21.0628692 357.002886z"/><path id="Fill-120" fill="#dfe5f2" d="M23.0249167 79.0625103 388.54438 28.4109876V350.110354L21.7238986 355.962173z"/><path id="Fill-121" fill="#dee5f1" d="M23.6789326 79.7847018 387.995568 29.2873588V349.119049L22.3884348 354.925315z"/><path id="Fill-122" fill="#dde4f1" d="M24.3332991 80.5100471 387.4436 30.1633796V348.127394L23.0498149 353.884602z"/><path id="Fill-123" fill="#dce3f1" d="M24.9908218 81.2322386 386.894788 31.0362467V347.139593L23.7108444 352.84424z"/><path id="Fill-124" fill="#dbe2f0" d="M25.6448376 81.9575838 386.342468 31.9122675V346.147937L24.3718738 351.803527z"/><path id="Fill-125" fill="#dae1f0" d="M26.2988534 82.6829291 385.797163 32.7847842V345.156282L25.0329032 350.762815z"/><path id="Fill-126" fill="#d9e1ef" d="M26.9563761 83.4051206 385.244844 33.6611554V344.16848L25.6939326 349.722452z"/><path id="Fill-127" fill="#d8e0ef" d="M27.6103919 84.1304658 384.696032 34.5371762V343.176825L26.354962 348.68174z"/><path id="Fill-128" fill="#d8dfef" d="M28.2644078 84.8526574 384.143713 35.4100434V342.18552L27.0159915 347.641377z"/><path id="Fill-129" fill="#d7deee" d="M28.9219304 85.5780026 383.598407 36.2860642V341.193864L27.6770209 346.597161z"/><path id="Fill-130" fill="#d6ddee" d="M29.5762969 86.3033478 383.046439 37.1585809V340.205713L28.338401 345.556448z"/><path id="Fill-131" fill="#d5dded" d="M30.2303128 87.0255394 382.497627 38.0349521V339.214408L28.9994304 344.516086z"/><path id="Fill-132" fill="#d4dced" d="M30.8878354 87.7508846 381.945308 38.9074688V338.222752L29.6604598 343.475373z"/><path id="Fill-133" fill="#d3dbec" d="M31.5418513 88.4730761 381.396496 39.7803359V337.234951L30.3214893 342.438515z"/><path id="Fill-134" fill="#d2daec" d="M32.1958671 89.1984214 380.847683 40.6528526V336.243295L30.9825187 341.397802z"/><path id="Fill-135" fill="#d1d9ec" d="M32.8502337 89.9237666 380.295715 41.5288734V335.255144L31.6438988 340.357089z"/><path id="Fill-136" fill="#d0d9eb" d="M33.5077563 90.6459581 379.746903 42.4052447V334.260335L32.3049282 339.316727z"/><path id="Fill-137" fill="#cfd8eb" d="M34.1617721 91.3713034 379.198091 43.2777614V333.272183L32.9659576 338.276014z"/><path id="Fill-138" fill="#ced7ea" d="M34.815788 92.0934949l343.83349-47.9393623V332.280878L33.6269871 337.235652z"/><path id="Fill-139" fill="#cdd6ea" d="M35.4733106 92.8188401 378.096959 45.0266493V331.292727L34.2915233 336.194939z"/><path id="Fill-140" fill="#ccd5ea" d="M36.1273265 93.5441854 377.548147 45.9026701V330.297567L34.9525527 335.154226z"/><path id="Fill-141" fill="#cbd5e9" d="M36.781693 94.2663769 376.999686 46.7755372V329.309766L35.6139328 334.11036z"/><path id="Fill-142" fill="#cad4e9" d="M37.4392156 94.9917221 376.450873 47.651558V328.321615L36.2749622 333.069647z"/><path id="Fill-143" fill="#c9d3e8" d="M38.0932315 95.7139137 375.898554 48.5244252V327.330309L36.9359916 332.029285z"/><path id="Fill-144" fill="#c8d2e8" d="M38.7472473 96.4392589 375.346235 49.400446V326.338654L37.5970211 330.992076z"/><path id="Fill-145" fill="#c7d1e7" d="M39.40477 97.1614504 374.80093 50.2733131V325.347349L38.2580505 329.951714z"/><path id="Fill-146" fill="#c6d1e7" d="M40.0587858 97.8867957 374.248611 51.1493339V324.359197L38.9190799 328.911001z"/><path id="Fill-147" fill="#c5d0e7" d="M40.7128017 98.6121409 373.699799 52.0253547V323.367542L39.5801093 327.870289z"/><path id="Fill-148" fill="#c4cfe6" d="M41.3703243 99.3343324 373.14748 52.8982218V322.376237L40.2446456 326.829926z"/><path id="Fill-149" fill="#c3cee6" d="M42.0246908 100.059678 372.602525 53.7742426V321.388085L40.9060257 325.789214z"/><path id="Fill-150" fill="#c2cde5" d="M42.6787067 100.781869 372.050206 54.6471097V320.39678L41.5670551 324.748851z"/><path id="Fill-151" fill="#c1cde5" d="M43.3362293 101.507214 371.501394 55.5231305V319.408629L42.2280845 323.708139z"/><path id="Fill-152" fill="#c0cce5" d="M43.9902452 102.23256 370.949075 56.3956473V318.413469L42.8891139 322.667426z"/><path id="Fill-153" fill="#bfcbe4" d="M44.644261 102.954751 370.403769 57.2720185V317.425668L43.5501434 321.62356z"/><path id="Fill-154" fill="#becae4" d="M45.3017837 103.680096 369.85145 58.1445352V316.434012L44.207666 320.582847z"/><path id="Fill-155" fill="#bdc9e3" d="M45.9561502 104.402288 369.299482 59.0209064V315.446211L44.8690461 319.542485z"/><path id="Fill-156" fill="#bcc9e3" d="M46.610166 105.127633 368.75067 59.8969272V314.451052L45.5300755 318.505276z"/><path id="Fill-157" fill="#bbc8e3" d="M47.2676887 105.852978 368.201857 60.7694439V313.4629L46.1911049 317.464563z"/><path id="Fill-158" fill="#bac7e2" d="M47.9217045 106.57517 367.653045 61.6458151V312.475099L46.8556411 316.424201z"/><path id="Fill-159" fill="#b9c6e2" d="M48.5757204 107.300515 367.100726 62.5183318V311.483444L47.5166706 315.383488z"/><path id="Fill-160" fill="#b8c5e1" d="M49.2300869 108.022707 366.552265 63.3947031V310.492138L48.1780507 314.343126z"/><path id="Fill-161" fill="#b7c5e1" d="M49.8876095 108.748052 366.003452 64.2672198V309.500483L48.8390801 313.302413z"/><path id="Fill-162" fill="#b6c4e0" d="M50.5416254 109.473397 365.45464 65.1432406V308.512331L49.5001095 312.2617z"/><path id="Fill-163" fill="#b5c3e0" d="M51.1956412 110.195589 364.902321 66.0161077V307.521026L50.1611389 311.221338z"/><path id="Fill-164" fill="#b4c2e0" d="M51.8531639 110.920934 364.353509 66.8921285V306.529371L50.8221684 310.180625z"/><path id="Fill-165" fill="#b3c1df" d="M52.5071797 111.643126 363.804697 67.7649956V305.54157L51.4831978 309.136759z"/><path id="Fill-166" fill="#b2c1df" d="M53.1615462 112.368471 363.252728 68.6410164V304.549914L52.1445779 308.096046z"/><path id="Fill-167" fill="#b1c0de" d="M53.8190689 113.093816 362.703916 69.5135331V303.558259L52.8091141 307.058838z"/><path id="Fill-168" fill="#b0bfde" d="M54.4730847 113.816008 362.151597 70.3864003V302.566953L53.4701435 306.018475z"/></g></g><path d="M319.640555 132.853358 320.222596 386.122501C320.233115 390.038817 322.964499 393.218192 326.330517 393.218192H686.263114C689.625627 393.218192 692.353504 389.403644 692.353504 384.704767V80.8147819L319.640555 132.853358z" id="Fill-170" fill="#fff" mask="url(#mask-2)"/><path d="M692.353504 81.7152292V68.0097276C692.353504 63.2777303 689.6223 59.8513549 686.252998 60.3594889L325.727068 114.412237C322.357765 114.916842 319.630067 118.52671 319.640555 122.464748L319.668634 133.887176 692.353504 81.7152292z" id="Fill-171" fill="#f1f0f6" mask="url(#mask-2)"/><path d="M331.702463 121.384208C331.706353 123.371057 330.089008 125.175778 328.089736 125.417511 326.094362 125.655933 324.47312 124.248582 324.465318 122.271667 324.461428 120.291441 326.074876 118.483408 328.07025 118.235052 330.069522 117.986696 331.694661 119.397358 331.702463 121.384208" id="Fill-172" fill="#f46e74" mask="url(#mask-2)"/><path d="M342.55818 120.181886C342.56595 122.167128 340.947739 123.968003 338.947396 124.211631 336.950952 124.448675 335.324942 123.039581 335.321035 121.064216 335.317143 119.082266 336.931455 117.274807 338.927899 117.027886 340.928242 116.784258 342.554252 118.193352 342.55818 120.181886" id="Fill-173" fill="#e8cb81" mask="url(#mask-2)"/><path d="M353.413897 118.976272C353.417787 120.961186 351.804339 122.765951 349.80117 123.005057 347.805796 123.244164 346.184554 121.832451 346.176752 119.854088 346.172862 117.87245 347.790207 116.067685 349.781684 115.822027 351.784853 115.57637 353.409993 116.991358 353.413897 118.976272" id="Fill-174" fill="#a3cf6f" mask="url(#mask-2)"/><path id="Fill-175" fill="#2e95d1" mask="url(#mask-2)" d="M691.147314 83.2271634 319.640555 134.622501 319.752622 184.547188 691.147314 143.108642z"/><path id="Fill-176" fill="#cfeaf9" mask="url(#mask-2)" d="M553.571351 180.928616 454.733922 190.843835 454.849776 276.217687 553.641565 270.515824z"/><path id="Fill-177" fill="#cfeaf9" mask="url(#mask-2)" d="M442.5492 192.990524 343.764371 202.894788 343.932802 283.454832 442.672014 277.759268z"/><path id="Fill-178" fill="#cfeaf9" mask="url(#mask-2)" d="M664.597065 171.27909 565.703473 181.20107 565.763191 271.392924 664.611117 265.688662z"/><path id="Fill-179" fill="#fff" mask="url(#mask-2)" d="M383.568666 166.610272 344.980965 171.27909 344.970561 165.217504 383.558262 160.423373z"/><path id="Fill-180" fill="#136fb7" mask="url(#mask-2)" d="M418.548199 296.863026 344.977635 300.341503 344.970561 296.72293 418.541125 293.104358z"/><path id="Fill-181" fill="#f36c36" mask="url(#mask-2)" d="M411.311054 217.177747 355.833307 221.939102 355.826278 218.364723 411.304026 213.495767z"/><path id="Fill-182" fill="#4aa7de" mask="url(#mask-2)" d="M411.311054 333.821889 358.249106 335.321035 358.23866 329.740153 411.300608 328.083891z"/><path id="Fill-183" fill="#f36c36" mask="url(#mask-2)" d="M348.589134 335.209351 344.983976 335.321035 344.970561 329.412236 348.579073 329.290081z"/><path id="Fill-184" fill="#4aa7de" mask="url(#mask-2)" d="M431.816297 346.878824 358.245736 348.589134 358.23866 345.590813 431.809221 343.764371z"/><path id="Fill-185" fill="#ffc400" mask="url(#mask-2)" d="M348.589134 348.272509 344.977281 348.359354 344.970561 345.301661 348.585774 345.200341z"/><path id="Fill-186" fill="#4aa7de" mask="url(#mask-2)" d="M396.836765 361.297887 358.249423 361.857232 358.23866 357.676861 396.829589 357.032469z"/><path id="Fill-187" fill="#97d3f1" mask="url(#mask-2)" d="M547.610611 330.066496 455.95069 332.908654 455.940113 326.395678 547.60356 323.259127z"/><path id="Fill-188" fill="#97d3f1" mask="url(#mask-2)" d="M530.723941 343.293414 455.943648 344.970561 455.940113 341.934755 530.723941 340.145798z"/><path id="Fill-189" fill="#97d3f1" mask="url(#mask-2)" d="M553.641565 358.922885 455.947145 360.651041 455.940113 355.400104 553.638049 353.413897z"/><path id="Fill-190" fill="#97d3f1" mask="url(#mask-2)" d="M418.548199 238.902631 355.833271 243.650536 355.826278 240.076157 418.541206 235.207201z"/><path id="Fill-191" fill="#97d3f1" mask="url(#mask-2)" d="M407.692482 256.942014 355.836728 260.537207 355.826278 254.645662 407.682032 250.887681z"/><path id="Fill-192" fill="#97d3f1" mask="url(#mask-2)" d="M425.785343 265.906738 355.833306 270.186733 355.826278 267.340101 425.781829 262.949589z"/><path id="Fill-193" fill="#97d3f1" mask="url(#mask-2)" d="M529.51775 229.772536 463.184235 235.207201 463.177257 231.126664 529.514261 225.557675z"/><path id="Fill-194" fill="#97d3f1" mask="url(#mask-2)" d="M519.868224 249.220922 463.184359 253.300063 463.177257 246.706735 519.861122 242.444346z"/><path id="Fill-195" fill="#97d3f1" mask="url(#mask-2)" d="M536.754894 258.672662 463.18427 262.949589 463.177257 260.094074 536.754894 255.712444z"/><path id="Fill-196" fill="#97d3f1" mask="url(#mask-2)" d="M641.693492 220.412733 580.177762 225.557675V221.185578L641.693492 215.908149z"/><path id="Fill-197" fill="#97d3f1" mask="url(#mask-2)" d="M629.631584 241.202401 580.181252 244.856727 580.177762 237.821779 629.628094 234.00101z"/><path id="Fill-198" fill="#97d3f1" mask="url(#mask-2)" d="M646.518255 252.902381 580.181252 256.918635 580.177762 253.793056 646.518255 249.68149z"/><path id="Fill-199" fill="#97d3f1" mask="url(#mask-2)" d="M570.528236 329.089462 563.295126 329.290081 563.291092 322.275847 570.524202 322.052937z"/><path id="Fill-200" fill="#97d3f1" mask="url(#mask-2)" d="M570.528236 343.590679 563.295126 343.742659 563.291092 340.326727 570.524202 340.16751z"/><path id="Fill-201" fill="#97d3f1" mask="url(#mask-2)" d="M570.528236 358.145363 563.295126 358.23866 563.291092 353.520521 570.524202 353.413897z"/><path id="Fill-202" fill="#136fb7" mask="url(#mask-2)" d="M348.589134 361.796811 344.977275 361.857232 344.970561 358.305795 348.579063 358.23866z"/><path id="Fill-203" fill="#ffc400" mask="url(#mask-2)" d="M522.280605 206.819946 463.180762 212.289576 463.177257 208.2289 522.277101 202.64005z"/><path id="Fill-204" fill="#136fb7" mask="url(#mask-2)" d="M632.043966 198.225061 580.177762 202.64005V198.710842L632.043966 194.196715z"/><path id="Fill-205" fill="#97d3f1" mask="url(#mask-2)" d="M383.568666 310.702256 344.977505 312.403411 344.970561 309.337713 383.565195 307.578647z"/><path id="Fill-206" fill="#fff" mask="url(#mask-2)" d="M359.444851 148.931347 344.977571 150.773847 344.970561 147.819553 359.441346 145.949084z"/><path id="Fill-207" fill="#cfeaf9" mask="url(#mask-2)" d="M431.816297 160.476846 389.61031 165.248136 389.59962 159.290898 431.805608 154.392419z"/><path id="Fill-208" fill="#cfeaf9" mask="url(#mask-2)" d="M481.270119 155.717647 439.064132 160.423373 439.053442 154.395433 481.262992 149.567656z"/><path id="Fill-209" fill="#cfeaf9" mask="url(#mask-2)" d="M529.51775 149.914135 490.926582 154.392419 490.919645 148.128317 529.514281 143.536702z"/><path id="Fill-210" fill="#cfeaf9" mask="url(#mask-2)" d="M580.177762 142.537006 537.968107 147.155274 537.961085 141.039101 580.174252 136.299557z"/><path id="Fill-211" fill="#cfeaf9" mask="url(#mask-2)" d="M627.219203 137.771434 585.009547 142.330511 585.002525 136.156828 627.215692 131.474794z"/><path id="Fill-212" fill="#136fb7" mask="url(#mask-2)" d="M679.085406 104.463363 675.466834 104.938597V98.1834764L679.085406 97.7014527z"/><path id="Fill-213" fill="#136fb7" mask="url(#mask-2)" d="M667.023498 105.250958 659.786353 106.144788V99.8206963L667.020138 98.9076435z"/><path id="Fill-214" fill="#136fb7" mask="url(#mask-2)" d="M653.7554 107.59519 645.312064 108.55717V102.307488L653.751782 101.320025z"/><path id="Fill-215" fill="#136fb7" mask="url(#mask-2)" d="M641.693492 109.48415 630.841135 110.969551 630.837775 104.047153 641.690132 102.526216z"/><path id="Fill-216" fill="#136fb7" mask="url(#mask-2)" d="M628.425393 111.840974 598.274124 115.794314 598.270624 108.984206 628.425393 104.938597z"/><g id="Group-298" mask="url(#mask-2)"><g transform="translate(318.434364, 104.938597)"><path id="Fill-217" fill="#fff" d="M106.070237 103.167561.0598186496 109.228288.71038348 14.6746097 106.070237.195032788z"/><path id="Fill-218" fill="#fefeff" d="M.73464779 14.8308793 105.820209.379459096V102.978911L.0911160928 109.02556z"/><path id="Fill-219" fill="#fdfdfe" d="M.76207701 14.9853891 105.569829.558606024V102.788501L.118545313 108.821072z"/><path id="Fill-220" fill="#fcfdfe" d="M.789857886 15.1402509 105.319802.741624496V102.601963L.149842756 108.620455z"/><path id="Fill-221" fill="#fbfcfd" d="M.817287106 15.2947607 105.069422.924291011V102.411554L.177271976 108.415967z"/><path id="Fill-222" fill="#fafbfd" d="M.844716326 15.4496225 104.815526 1.10730948V102.225016L.204701196 108.215351z"/><path id="Fill-223" fill="#f9fafd" d="M.872145546 15.6041323 104.565146 1.28645641V102.038126L.235646982 108.014383z"/><path id="Fill-224" fill="#f8f9fc" d="M.899574766 15.7586421 104.314767 1.46560334V101.847716L.263076202 107.809895z"/><path id="Fill-225" fill="#f7f9fc" d="M.923487419 15.9135039 104.064387 1.64862181V101.657658L.294021989 107.609278z"/><path id="Fill-226" fill="#f6f8fb" d="M.951268296 16.0648461 103.817876 1.83164029V101.47112L.321802865 107.405142z"/><path id="Fill-227" fill="#f5f7fb" d="M.978697515 16.219356 103.567496 2.0143068V101.28423L.349232085 107.204174z"/><path id="Fill-228" fill="#f4f6fa" d="M1.00612674 16.3738658 103.317117 2.19697331V101.093821L.380177871 106.999686z"/><path id="Fill-229" fill="#f3f5fa" d="M1.03355596 16.5287276 103.066737 2.3764722V100.907283L.407607091 106.79907z"/><path id="Fill-230" fill="#f2f5fa" d="M1.06098518 16.6832374 102.816358 2.55561913V100.716873L.438552878 106.598101z"/><path id="Fill-231" fill="#f1f4f9" d="M1.08841439 16.8380992 102.562462 2.7386376V100.526815L.465982098 106.393965z"/><path id="Fill-232" fill="#f0f3f9" d="M1.1126787 16.992609 102.312434 2.92130412V100.343445L.493762974 106.192997z"/><path id="Fill-233" fill="#eff2f8" d="M1.14010792 17.1474708 102.062054 3.10432259V100.153387L.524708761 105.988861z"/><path id="Fill-234" fill="#eef1f8" d="M1.16753714 17.3019806 101.811675 3.2869891V99.9629777L.552137981 105.787893z"/><path id="Fill-235" fill="#edf1f8" d="M1.19496636 17.4568424 101.561295 3.4629684V99.7764397L.583083767 105.583757z"/><path id="Fill-236" fill="#ecf0f7" d="M1.22239558 17.6078326 101.310916 3.64563492V99.5860301L.610512987 105.382788z"/><path id="Fill-237" fill="#ebeff7" d="M1.2498248 17.7626944 101.060536 3.82865339V99.399492L.637942207 105.182172z"/><path id="Fill-238" fill="#eaeef6" d="M1.27725402 17.9172042 100.810157 4.0113199V99.212602L.668887994 104.977684z"/><path id="Fill-239" fill="#e9edf6" d="M1.30151833 18.072066 100.560129 4.19433838V99.0225444L.69666887 104.777067z"/><path id="Fill-240" fill="#e8edf6" d="M1.32894755 18.2265759 100.306233 4.3734853V98.8321348L.727614657 104.57258z"/><path id="Fill-241" fill="#e7ecf5" d="M1.35637677 18.3814376 100.055853 4.55298419V98.6455967L.755043876 104.371963z"/><path id="Fill-242" fill="#e6ebf5" d="M1.38380599 18.5359475 99.8054734 4.73565071V98.4587067L.782473096 104.167475z"/><path id="Fill-243" fill="#e5eaf4" d="M1.41123521 18.6904573 99.5550939 4.91831722V98.2682971L.813418883 103.966507z"/><path id="Fill-244" fill="#e4e9f4" d="M1.43866443 18.8453191 99.3047143 5.10133569V98.081759L.840848103 103.76589z"/><path id="Fill-245" fill="#e3e9f3" d="M1.46609365 18.9998289 99.0543348 5.28400221V97.8913494L.871793889 103.561402z"/><path id="Fill-246" fill="#e2e8f3" d="M1.49035796 19.1511711 98.8043069 5.46350109V97.7012918L.899574766 103.360786z"/><path id="Fill-247" fill="#e1e7f3" d="M1.51778718 19.3060329 98.5539274 5.64299998V97.5182733L.927003986 103.15665z"/><path id="Fill-248" fill="#e0e6f2" d="M1.5452164 19.4605427 98.3035478 5.82566649V97.3278637L.957949772 102.955682z"/><path id="Fill-249" fill="#dfe5f2" d="M1.57264562 19.6150525 98.0531683 6.00833301V97.1374541L.985378992 102.751194z"/><path id="Fill-250" fill="#dee5f1" d="M1.60007484 19.7699143 97.7992721 6.19135148V96.950916L1.01632478 102.554097z"/><path id="Fill-251" fill="#dde4f1" d="M1.62750406 19.9244242 97.5488926 6.37049841V96.7605064L1.043754 102.349609z"/><path id="Fill-252" fill="#dce3f1" d="M1.65528494 20.0792859 97.2988647 6.55351688V96.5739684L1.07153488 102.145473z"/><path id="Fill-253" fill="#dbe2f0" d="M1.67919759 20.2337958 97.0484852 6.73266381V96.3870784L1.10248066 101.944505z"/><path id="Fill-254" fill="#dae1f0" d="M1.70662681 20.3886575 96.7981056 6.91568228V96.1970207L1.12990988 101.740369z"/><path id="Fill-255" fill="#d9e1ef" d="M1.73405603 20.5396478 96.5477261 7.0983488V96.0066111L1.16085567 101.5394z"/><path id="Fill-256" fill="#d8e0ef" d="M1.76148525 20.6945096 96.2973465 7.27784768V95.820073L1.18828489 101.338784z"/><path id="Fill-257" fill="#d8dfef" d="M1.78891447 20.8490194 96.046967 7.4605142V95.633183L1.21571411 101.137816z"/><path id="Fill-258" fill="#d7deee" d="M1.81669535 21.0038812 95.7969391 7.64353267V95.4431254L1.24701155 100.93368z"/><path id="Fill-259" fill="#d6ddee" d="M1.84412457 21.158391 95.5465596 7.8226796V95.2562354L1.27444077 100.729192z"/><path id="Fill-260" fill="#d5dded" d="M1.86803722 21.3132528 95.2926634 8.00569807V95.0661777L1.30538656 100.528575z"/><path id="Fill-261" fill="#d4dced" d="M1.89546644 21.4677626 95.0422839 8.18836459V94.8757681L1.33281578 100.324087z"/><path id="Fill-262" fill="#d3dbec" d="M1.92289566 21.6226244 94.7919043 8.36786347V94.6927496L1.360245 100.123471z"/><path id="Fill-263" fill="#d2daec" d="M1.95032488 21.7771342 94.5415248 8.55052999V94.50234L1.39119078 99.9225025z"/><path id="Fill-264" fill="#d1d9ec" d="M1.97810576 21.9316441 94.2914969 8.7331965V94.3119304L1.41897166 99.7215341z"/><path id="Fill-265" fill="#d0d9eb" d="M2.00553498 22.0829863 94.0411174 8.91269539V94.1253924L1.44991745 99.5173982z"/><path id="Fill-266" fill="#cfd8eb" d="M2.0329642 22.237848 93.7907378 9.09571386V93.9353347L1.47734667 99.3132622z"/><path id="Fill-267" fill="#ced7ea" d="M2.05687685 22.3923579 93.5403583 9.27486079V93.7484447L1.50477589 99.1122938z"/><path id="Fill-268" fill="#cdd6ea" d="M2.08430607 22.5472196 93.2899787 9.45787926V93.5619067L1.53572167 98.9081578z"/><path id="Fill-269" fill="#ccd5ea" d="M2.11173529 22.7017295 93.0360826 9.64054578V93.3714971L1.56315089 98.7071895z"/><path id="Fill-270" fill="#cbd5e9" d="M2.13916451 22.8562393 92.7857031 9.82321229V93.1810875L1.59409668 98.5062211z"/><path id="Fill-271" fill="#cad4e9" d="M2.16694539 23.0111011 92.5356752 10.0027112V92.9945494L1.62187756 98.3056047z"/><path id="Fill-272" fill="#c9d3e8" d="M2.19437461 23.1656109 92.2852956 10.1853777V92.8076594L1.64930678 98.1011167z"/><path id="Fill-273" fill="#c8d2e8" d="M2.22180383 23.3204727 92.0349161 10.3648766V92.6176017L1.68025256 97.8969808z"/><path id="Fill-274" fill="#c7d1e7" d="M2.24571648 23.4749825 91.7845365 10.5475431V92.4307117L1.70768178 97.6960124z"/><path id="Fill-275" fill="#c6d1e7" d="M2.2731457 23.6263247 91.534157 10.7305616V92.2406541L1.73862757 97.4918764z"/><path id="Fill-276" fill="#c5d0e7" d="M2.30057492 23.7808345 91.2837775 10.9132281V92.0502445L1.76605679 97.290908z"/><path id="Fill-277" fill="#c4cfe6" d="M2.3283558 23.9356963 91.0337496 11.092727V91.867226L1.79383767 97.0902916z"/><path id="Fill-278" fill="#c3cee6" d="M2.35578502 24.0902062 90.78337 11.2718739V91.6768164L1.82478345 96.8893233z"/><path id="Fill-279" fill="#c2cde5" d="M2.38321424 24.2450679 90.5294739 11.4548924V91.4867587L1.85221267 96.6851873z"/><path id="Fill-280" fill="#c1cde5" d="M2.41064346 24.3995778 90.2790944 11.6375589V91.2998687L1.88315846 96.4806993z"/><path id="Fill-281" fill="#c0cce5" d="M2.43455611 24.5544396 90.0287148 11.8205774V91.1098111L1.91058768 96.2800829z"/><path id="Fill-282" fill="#bfcbe4" d="M2.46198533 24.7089494 89.7783353 12.0032439V90.9229211L1.94153346 96.075595z"/><path id="Fill-283" fill="#becae4" d="M2.48976621 24.8638112 89.5283074 12.1827428V90.736383L1.96931434 95.8749786z"/><path id="Fill-284" fill="#bdc9e3" d="M2.51719543 25.0148014 89.2779278 12.3618897V90.5459734L1.99674356 95.6740102z"/><path id="Fill-285" fill="#bcc9e3" d="M2.54462465 25.1696632 89.0275483 12.5449082V90.3559158L2.02768935 95.4733938z"/><path id="Fill-286" fill="#bbc8e3" d="M2.57205387 25.324173 88.7771687 12.7275747v77.441451L2.05511857 95.2689059z"/><path id="Fill-287" fill="#bac7e2" d="M2.59948308 25.4790348 88.5267892 12.9105931V89.9824877L2.08606435 95.0647699z"/><path id="Fill-288" fill="#b9c6e2" d="M2.62339574 25.6335446 88.2728931 13.0932597V89.7920781L2.10997701 94.8638015z"/><path id="Fill-289" fill="#b8c5e1" d="M2.65117661 25.7884064 88.0228652 13.2727585V89.60554L2.13775788 94.6596655z"/><path id="Fill-290" fill="#b7c5e1" d="M2.67860583 25.9429162 87.7724857 13.4519055V89.4151304L2.16870367 94.4586972z"/><path id="Fill-291" fill="#b6c4e0" d="M2.70603505 26.0974261 87.5221061 13.634572V89.2282404L2.19613289 94.2577288z"/><path id="Fill-292" fill="#b5c3e0" d="M2.73346427 26.2522878 87.2717266 13.8175905V89.0417023L2.22707868 94.0571124z"/><path id="Fill-293" fill="#b4c2e0" d="M2.76089349 26.4067977 87.021347 14.000257V88.8512927L2.2545079 93.8526245z"/><path id="Fill-294" fill="#b3c1df" d="M2.78832271 26.5581399 86.7709675 14.1797559V88.6647547L2.28193712 93.6484885z"/><path id="Fill-295" fill="#b2c1df" d="M2.81258702 26.7126497 86.5209396 14.3624224V88.4743451L2.31323456 93.4475201z"/><path id="Fill-296" fill="#b1c0de" d="M2.84001624 26.8675115 86.27056 14.5419213V88.2842874L2.34066378 93.2433841z"/><path id="Fill-297" fill="#b0bfde" d="M2.86744546 27.0220213 86.0201805 14.7245878V88.100917L2.37160957 93.0424158z"/></g></g><g id="Group-380" mask="url(#mask-2)"><g transform="translate(550.022993, 290.691977)"><path id="Fill-299" fill="#fff" d="M238.443638 122.627546.223954839 125.022151 1.10311058 18.0338767 238.443638.232342421z"/><path id="Fill-300" fill="#fefeff" d="M1.47368699 18.5408869 238.106687.848198263V122.330503L.598033857 124.70053z"/><path id="Fill-301" fill="#fdfdfe" d="M1.83971 19.0485993 237.76168 1.46124518V122.034162L.971062092 124.386633z"/><path id="Fill-302" fill="#fcfdfe" d="M2.20888536 19.5559606 237.419825 2.07394099V121.73747L1.34374006 124.068874z"/><path id="Fill-303" fill="#fbfcfd" d="M2.57841098 20.0633219 237.081823 2.6936591V121.437266L1.71326569 123.747604z"/><path id="Fill-304" fill="#fafbfd" d="M2.9479366 20.5710343 236.740318 3.30670602V121.144436L2.08629392 123.433707z"/><path id="Fill-305" fill="#f9fafd" d="M3.31395961 21.0783956 236.402316 3.91940183V120.844233L2.45932216 123.115948z"/><path id="Fill-306" fill="#f8f9fc" d="M3.68313497 21.589268 236.060461 4.53911993V120.547541L2.83200013 122.794677z"/><path id="Fill-307" fill="#f7f9fc" d="M4.0526606 22.0966293 235.722459 5.15181574V120.250849L3.20502836 122.480429z"/><path id="Fill-308" fill="#f6f8fb" d="M4.41868361 22.6043417 235.377451 5.76486266V119.954507L3.57455399 122.15951z"/><path id="Fill-309" fill="#f5f7fb" d="M4.78820923 23.111703 235.035947 6.37755847V119.657815L3.94758222 121.841751z"/><path id="Fill-310" fill="#f4f6fa" d="M5.15738459 23.6190642 234.697594 6.99727658V119.361123L4.32026019 121.527503z"/><path id="Fill-311" fill="#f3f5fa" d="M5.52691021 24.1264255 234.356089 7.60997238V119.06092L4.69328843 121.206233z"/><path id="Fill-312" fill="#f2f5fa" d="M5.89293322 24.6341379 234.018087 8.2230193V118.76809L5.06631666 120.888825z"/><path id="Fill-313" fill="#f1f4f9" d="M6.26245884 25.1414992 233.676583 8.83922626V118.467886L5.43584228 120.571065z"/><path id="Fill-314" fill="#f0f3f9" d="M6.6316342 25.6523716 233.334728 9.45543322V118.171194L5.80852026 120.253306z"/><path id="Fill-315" fill="#eff2f8" d="M7.00115982 26.160084 232.993223 10.0684801V117.874853L6.18154849 119.935898z"/><path id="Fill-316" fill="#eef1f8" d="M7.36718283 26.6674453 232.651718 10.6846871V117.578161L6.55457673 119.618139z"/><path id="Fill-317" fill="#edf1f8" d="M7.73670846 27.1748066 232.313716 11.3008941V117.277957L6.92760496 119.30038z"/><path id="Fill-318" fill="#ecf0f7" d="M8.10588382 27.6821679 231.971861 11.9135899V116.984776L7.29678032 118.982621z"/><path id="Fill-319" fill="#ebeff7" d="M8.47540944 28.1898803 231.630356 12.5266368V116.684924L7.66980856 118.665213z"/><path id="Fill-320" fill="#eaeef6" d="M8.84143245 28.6972416 231.292354 13.1428437V116.391743L8.03933418 118.347454z"/><path id="Fill-321" fill="#e9edf6" d="M9.21095807 29.208114 230.95085 13.7590507V116.091539L8.41236241 118.029695z"/><path id="Fill-322" fill="#e8edf6" d="M9.58013343 29.7154753 230.608995 14.3717465V115.794847L8.78153777 117.711935z"/><path id="Fill-323" fill="#e7ecf5" d="M9.94965905 30.2231877 230.26749 14.9883046V115.498506L9.15456601 117.394527z"/><path id="Fill-324" fill="#e6ebf5" d="M10.3156821 30.730549 229.929488 15.6010004V115.201814L9.52759424 117.076768z"/><path id="Fill-325" fill="#e5eaf4" d="M10.6852077 31.2379103 229.587983 16.2172073V114.90161L9.90062248 116.755498z"/><path id="Fill-326" fill="#e4e9f4" d="M11.054383 31.7456227 229.246128 16.8337654V114.60878L10.2733004 116.441601z"/><path id="Fill-327" fill="#e3e9f3" d="M11.4239087 32.2529839 228.908126 17.4464612V114.308577L10.6428261 116.123842z"/><path id="Fill-328" fill="#e2e8f3" d="M11.7899317 32.7603452 228.566621 18.059157v95.956239L11.0158543 115.802572z"/><path id="Fill-329" fill="#e1e7f3" d="M12.1594573 33.2712177 228.228619 18.675364v95.039829L11.3888825 115.488324z"/><path id="Fill-330" fill="#e0e6f2" d="M12.5286327 33.7789301 227.883261 19.291922v94.126929L11.7615605 115.170916z"/><path id="Fill-331" fill="#dfe5f2" d="M12.8946557 34.2862913 227.541757 19.9046179V113.122159L12.1345887 114.849645z"/><path id="Fill-332" fill="#dee5f1" d="M13.2641813 34.7936526 227.203755 20.5208248V112.825467l-214.6996406 1.70993z"/><path id="Fill-333" fill="#dde4f1" d="M13.6337069 35.301365 226.86225 21.1373829V112.525615L12.8771426 114.217989z"/><path id="Fill-334" fill="#dce3f1" d="M14.0028823 35.8087263 226.523898 21.7500787V112.232434L13.2498206 113.896719z"/><path id="Fill-335" fill="#dbe2f0" d="M14.3689053 36.3160876 226.182393 22.3627745V111.93223L13.6228488 113.57896z"/><path id="Fill-336" fill="#dae1f0" d="M14.7384309 36.8238 225.844391 22.9828437V111.6394L13.995877 113.265063z"/><path id="Fill-337" fill="#d9e1ef" d="M15.1079565 37.3346724 225.499383 23.5955395V111.339197L14.3654027 112.943793z"/><path id="Fill-338" fill="#d8e0ef" d="M15.4771319 37.8420337 225.157528 24.2082353V111.042505L14.7380806 112.626034z"/><path id="Fill-339" fill="#d8dfef" d="M15.8431549 38.349395 224.819526 24.8244423V110.745812L15.1111089 112.308274z"/><path id="Fill-340" fill="#d7deee" d="M16.2126805 38.8571074 224.478022 25.4410004V110.449471L15.4841371 111.990866z"/><path id="Fill-341" fill="#d6ddee" d="M16.5818559 39.3644687 224.139669 26.0536962V110.149268L15.8568151 111.673107z"/><path id="Fill-342" fill="#d5dded" d="M16.9513815 39.87183 223.798164 26.666392v83.189695L16.2263407 111.355348z"/><path id="Fill-343" fill="#d4dced" d="M17.3174045 40.3795424 223.45666 27.2864612V109.556234L16.5993689 111.03794z"/><path id="Fill-344" fill="#d3dbec" d="M17.6869301 40.8869036 223.115155 27.899157v81.360385L16.9723972 110.720181z"/><path id="Fill-345" fill="#d2daec" d="M18.0561055 41.3977761 222.7733 28.5118528V108.96285L17.3450751 110.402422z"/><path id="Fill-346" fill="#d1d9ec" d="M18.4256311 41.9051374 222.435298 29.1280598V108.666158L17.7146008 110.084663z"/><path id="Fill-347" fill="#d0d9eb" d="M18.7916541 42.4128498 222.093793 29.7446178V108.369817L18.087629 109.767255z"/><path id="Fill-348" fill="#cfd8eb" d="M19.1611797 42.920211 221.752289 30.3573136V108.073124L18.4606572 109.449495z"/><path id="Fill-349" fill="#ced7ea" d="M19.5303551 43.4275723 221.413936 30.9735206V107.772921L18.8333352 109.131736z"/><path id="Fill-350" fill="#cdd6ea" d="M19.8963781 43.9352847 221.072431 31.5865675V107.480091L19.2063634 108.814328z"/><path id="Fill-351" fill="#ccd5ea" d="M20.2659037 44.442646 220.730927 32.2027745V107.179888L19.5758891 108.496569z"/><path id="Fill-352" fill="#cbd5e9" d="M20.6354294 44.9535184 220.389422 32.8154703V106.883195L19.9489173 108.17881z"/><path id="Fill-353" fill="#cad4e9" d="M21.0046047 45.4608797 220.05107 33.4316772V106.586503L20.3215953 107.85754z"/><path id="Fill-354" fill="#c9d3e8" d="M21.3706277 45.9685921 219.709565 34.0447242V106.290162L20.6946235 107.543643z"/><path id="Fill-355" fill="#c8d2e8" d="M21.7401534 46.4759534 219.36806 34.6609311V105.99347L21.0676517 107.225884z"/><path id="Fill-356" fill="#c7d1e7" d="M22.109679 46.9833147 219.030058 35.2771381V105.696778L21.4371774 106.904613z"/><path id="Fill-357" fill="#c6d1e7" d="M22.4788543 47.490676 218.688203 35.8898339V105.396574L21.8098553 106.586854z"/><path id="Fill-358" fill="#c5d0e7" d="M22.8448773 47.9983884 218.346698 36.506392v68.597352L22.1828836 106.272957z"/><path id="Fill-359" fill="#c4cfe6" d="M23.214403 48.5057497 218.005194 37.1225989V104.803541L22.5559118 105.951687z"/><path id="Fill-360" fill="#c3cee6" d="M23.5839286 49.0166221 217.663689 37.7352947V104.506849L22.92894 105.633928z"/><path id="Fill-361" fill="#c2cde5" d="M23.9531039 49.5239834 217.325337 38.3479905V104.210156L23.2981154 105.31968z"/><path id="Fill-362" fill="#c1cde5" d="M24.319127 50.0316958 216.983832 38.9680597V103.913815L23.667641 104.998761z"/><path id="Fill-363" fill="#c0cce5" d="M24.6886526 50.5390571 216.64583 39.5807556V103.613612L24.0406693 104.681002z"/><path id="Fill-364" fill="#bfcbe4" d="M25.0581782 51.0464183 216.304325 40.1934514V103.320431L24.4136975 104.366754z"/><path id="Fill-365" fill="#becae4" d="M25.4273536 51.5541307 215.96247 40.8064983V103.020578L24.7863755 104.045834z"/><path id="Fill-366" fill="#bdc9e3" d="M25.7933766 52.061492 215.620965 41.4262164V102.727397L25.1559011 103.728075z"/><path id="Fill-367" fill="#bcc9e3" d="M26.1629022 52.5688533 215.279461 42.0389122V102.427194L25.5289293 103.410316z"/><path id="Fill-368" fill="#bbc8e3" d="M26.5324278 53.0797257 214.941458 42.651608V102.130502L25.9019576 103.092557z"/><path id="Fill-369" fill="#bac7e2" d="M26.9016032 53.5874381 214.599603 43.2716772V101.834161L26.2746355 102.775149z"/><path id="Fill-370" fill="#b9c6e2" d="M27.2676262 54.0947994 214.261601 43.884373V101.537468L26.6441612 102.45739z"/><path id="Fill-371" fill="#b8c5e1" d="M27.6371518 54.6021607 213.920097 44.4970688V101.237265L27.0171894 102.139631z"/><path id="Fill-372" fill="#b7c5e1" d="M28.0066774 55.1098731 213.575089 45.1136269V100.944435L27.3902176 101.822223z"/><path id="Fill-373" fill="#b6c4e0" d="M28.3727004 55.6172344 213.237087 45.7298339V100.644232L27.7632459 101.504464z"/><path id="Fill-374" fill="#b5c3e0" d="M28.7418758 56.1245957l184.1533562-9.782066V100.351051L28.1359238 101.186704z"/><path id="Fill-375" fill="#b4c2e0" d="M29.1114014 56.6323081 212.55723 46.9555766V100.051198L28.5054495 100.869296z"/><path id="Fill-376" fill="#b3c1df" d="M29.480927 57.1431805 212.215725 47.5717836V99.754506L28.8784777 100.551537z"/><path id="Fill-377" fill="#b2c1df" d="M29.8469501 57.6505418 211.874221 48.1879905V99.4578138L29.2515059 100.233778z"/><path id="Fill-378" fill="#b1c0de" d="M30.2161254 58.1579031 211.535868 48.8006863V99.1611216L29.6241839 99.916019z"/><path id="Fill-379" fill="#b0bfde" d="M30.585651 58.6656155l180.60521-9.2483711V98.8612693L29.9972121 99.5986109z"/></g></g><path id="Fill-381" fill="#f1f0f6" mask="url(#mask-2)" d="M382.362475 195.070527 207.464813 203.846241 208.110399 108.900303 382.362475 91.6704988z"/><path id="Fill-382" fill="#c2cfdf" mask="url(#mask-2)" d="M352.200697 119.877054 288.279595 125.443841 288.307632 117.980092 352.207706 112.175742z"/><path id="Fill-383" fill="#c2cfdf" mask="url(#mask-2)" d="M361.853698 133.259281 288.279595 138.711939 288.297268 133.497359 361.857232 127.856222z"/><path id="Fill-384" fill="#c2cfdf" mask="url(#mask-2)" d="M352.200675 148.337048 288.279595 153.186228 288.300689 147.362817 352.207706 142.330511z"/><path id="Fill-385" fill="#c2cfdf" mask="url(#mask-2)" d="M358.231633 160.333576 287.073404 165.248136 287.094485 159.503561 358.23866 154.392419z"/><path id="Fill-386" fill="#c2cfdf" mask="url(#mask-2)" d="M302.736588 177.461223 287.073404 178.516235 287.094159 172.384711 302.753884 171.27909z"/><path id="Fill-387" fill="#aebddc" mask="url(#mask-2)" d="M217.114339 188.165761 217.519974 125.203937 282.248641 119.412887 282.001733 184.435394z"/><path d="M252.125506 154.294741 248.091673 158.766044C248.058308 158.794388 248.044962 158.815646 248.02828 158.815646 248.02828 158.797931 248.024943 158.762501 248.024943 158.698726L248.068318 150.358435C248.068318 150.26986 248.071654 150.252144 248.071654 150.252144 248.071654 150.252144 248.101683 150.248601 248.135048 150.266316L252.128842 154.124675C252.165544 154.149477 252.17889 154.191993 252.185563 154.216794 252.17889 154.220337 252.165544 154.245138 252.125506 154.294741M249.729897 143.548733C246.393393 143.825089 243.680816 148.888078 243.650788 154.879341 243.620759 160.842259 246.286625 165.480085 249.626465 165.239159 252.949622 164.998233 255.682218 159.938787 255.712247 153.936895 255.738939 147.906659 253.053054 143.268833 249.729897 143.548733" id="Fill-388" fill="#fff" mask="url(#mask-2)"/><path id="Fill-389" fill="#f1f0f6" mask="url(#mask-2)" d="M751.456852 376.331522H526.283832L525.899178 290.889504 751.456852 273.805306z"/><path id="Fill-390" fill="#c2cfdf" mask="url(#mask-2)" d="M673.054452 304.384186 539.195268 312.403411 539.167276 305.54297 673.043955 296.72293z"/><path id="Fill-391" fill="#c2cfdf" mask="url(#mask-2)" d="M723.714464 315.780028 539.188315 324.465318 539.167276 319.475667 723.714464 309.991029z"/><path id="Fill-392" fill="#c2cfdf" mask="url(#mask-2)" d="M710.446366 329.639898 537.978617 335.321035 537.961085 330.82614 710.44286 324.465318z"/><path id="Fill-393" fill="#c2cfdf" mask="url(#mask-2)" d="M720.095892 342.395575 537.98216 347.382943 537.961085 342.319126 720.09238 336.527226z"/><path id="Fill-394" fill="#c2cfdf" mask="url(#mask-2)" d="M603.095387 357.230082 537.98235 358.23866 537.961085 353.482959 603.077666 352.207706z"/></g></g></g></g></svg>