<svg xmlns="http://www.w3.org/2000/svg" width="1217.298" height="500.002" viewBox="0 0 1217.298 500.002">
  <g id="rick-morty" transform="translate(-34.909 -118.482)">
    <path id="Path_2075" data-name="Path 2075" d="M7022.386,13106.895c-401.344,64.578-535.291,214.314-738.044,156.521s-124.757-372.164,71.781-404.17,514.97,152.734,664.482,236.336C7021.284,13094.422,7023.588,13106.5,7022.386,13106.895Z" transform="translate(-6130.449 -12734.801)" opacity="0.04"/>
    <g id="Group_1708" data-name="Group 1708" transform="translate(12)">
      <g id="Group_1305" data-name="Group 1305" transform="translate(-3698 -9388)">
        <g id="Group_63" data-name="Group 63" transform="translate(-4)">
          <g id="Rectangle_12" data-name="Rectangle 12" transform="translate(4912.619 9985.593)" fill="#fff" stroke="#555" stroke-width="1">
            <rect width="6.795" height="7.413" stroke="none"/>
            <rect x="0.5" y="0.5" width="5.795" height="6.413" fill="none"/>
          </g>
          <g id="Rectangle_13" data-name="Rectangle 13" transform="translate(4871.379 9982.541) rotate(11)" fill="#fff" stroke="#555" stroke-width="1">
            <rect width="6.795" height="7.413" stroke="none"/>
            <rect x="0.5" y="0.5" width="5.795" height="6.413" fill="none"/>
          </g>
          <path id="Path_301" data-name="Path 301" d="M7.714,13.676A33.13,33.13,0,0,1,0,.914C2.216-2.114,11.642,3.349,11.636,3.4c-.3,3.653,2.437,7.065,2.437,7.065S9.887,15.839,7.714,13.676Z" transform="translate(4860.926 9996.903) rotate(-60)" fill="#fff" stroke="#555" stroke-width="1"/>
          <path id="Path_413" data-name="Path 413" d="M8.606,15.026C5.739,12.13,1.417,5.711,0,.843,2.216-2.185,11.094,3.921,11.1,3.9c.278,4.042,3.863,7.915,3.863,7.915S10.779,17.19,8.606,15.026Z" transform="translate(4902.758 9997.979) rotate(-60)" fill="#fff" stroke="#555" stroke-width="1"/>
          <path id="Path_299" data-name="Path 299" d="M8.928,119.833S42.944,16.736,42.944,16.318c-.034-.017,7.342,2.142,7.342,2.142s-3.762,47.409-4.739,56.372-4.124,50.148-4.124,50.148,8.773,1.4,8.762,1.388,4.684-21.856,9.3-51.26S69.965,8.956,69.965,8.956L29.376,0,0,116.657Z" transform="translate(4851.211 9870.361) rotate(-9)" fill="#7893c3" stroke="#555" stroke-width="1"/>
          <path id="Union_7" data-name="Union 7" d="M12.081,79.579a60.109,60.109,0,0,0,.215-6.919c-.083,5.619-1.39,7.068-1.39,7.068s-1.219.281-.787-1.149c0,.016.921-5.375-.492-9.5-3.023,4.522-.89,6.386-2.867,7.1-1.007,1.246-.314-7.372,1.71-12-.434-6.2-2.58-36.9-2.668-39.429C5.706,21.926,1.322,8.632,0,2.608A65.96,65.96,0,0,1,8.547.013C10.6,9.781,13.728,17.8,14.169,23.338c.408,5.118.062,36.54.007,41.313,4.571,7.982,2.505,12.387,2.505,12.387s-.866.761-.718-.329c.179-4.083.119-5.023.119-5.023S16.051,80.062,14.937,80c-.863-.052-.594-5.028-.429-7.264A59.364,59.364,0,0,1,13.112,80c0,.068-.318.258-.6.258C12.257,80.254,12.031,80.1,12.081,79.579Z" transform="translate(4914.035 9817.006)" fill="#fac9a5" stroke="#555" stroke-width="1"/>
          <path id="Union_8" data-name="Union 8" d="M19.895,77.728c-.083-.065-.166.013-.249.091s-.183.166-.278.075c-1.938-4.02-.346-8.554-.346-8.554s-.391.413-.723,4c-.334.334-.513-.156-.513-.156s-2.661-3.4,4.873-9.025c.876-2.339,13.226-35.3,14.2-37.836,1.011-2.63,2.17-16.581,3.307-22.642a58.837,58.837,0,0,1,8.364.651C46.6,14.123,46.351,22.725,44.591,28,42.91,33.039,29.065,63.511,27.85,66.183c-.032,4.492-2.259,11.249-2.661,9.936-1.389-1.238.984-2.062,0-6.78-3.265,2.525-2.482,7.884-2.479,7.87-.12,1.319-1.029.683-1.029.683s-1.367-1.625-.112-5.735c-1.141,3.559-.446,4.747-.69,5.569-.126.426-.194.595-.295.595C20.461,78.322,20.287,78.069,19.895,77.728Zm-.264-2.076a12.271,12.271,0,0,1,.621-5.835S19.167,70.828,19.63,75.652Z" transform="translate(4831.685 9814.354)" fill="#fac9a5" stroke="#555" stroke-width="1"/>
          <path id="Path_309" data-name="Path 309" d="M1198.9,430.229s9.135,21.164,6.931,55.661c-20.4,6.288-41.181-3.656-41.074-3.9a392.007,392.007,0,0,1,2.088-51.758l-2.088,17.14a50.991,50.991,0,0,0-10.881,0s.418-26.034,8.714-33.019c8.316-7.016,27.1-2.686,34.594-.965,12.752,4.813,16.613,36.064,16.613,36.064s-6.059,2.333-9.673,1.677A132.339,132.339,0,0,0,1198.9,430.229Z" transform="translate(3715.154 9384.221)" fill="#f7e9a0" stroke="#555" stroke-width="1"/>
          <path id="Path_320" data-name="Path 320" d="M1.13,34.692C.533,33.246-.9,27.057.816,24.545,1.63,23.353,5.1,15.754,8.74,11.526S24.221-.372,35.337.014,55.562,1.8,61.865,7.6a43.371,43.371,0,0,0,3.562,2.924c.527.394,2.671,1.889,3.352,2.352,2.924,1.988,3.905,5.791,5.973,10.075,3.242,6.718,2.688,15.943,2.506,18.86s-6,10.737-7.966,11.065.088-9.754.088-9.754S1.549,35.721,1.13,34.692Z" transform="translate(4867.096 9717.322) rotate(14)" fill="#555"/>
          <path id="Path_321" data-name="Path 321" d="M1.949,24.372C3.979,19.2,10.409-1.313,35.79.066S69.8,19.718,70.815,31.957s.169,32.58-20.981,38.958C16.5,78.156,3.81,54.022,3.81,54.022S-3.339,45.836,1.949,24.372Z" transform="translate(4850.377 9739.953) rotate(-9)" fill="#fac9a5" stroke="#555" stroke-width="1"/>
          <path id="Path_369" data-name="Path 369" d="M2.259,0s-5.082,8.443,0,9.37,6.9-2.878,6.9-2.878" transform="translate(4882.484 9768.205) rotate(7)" fill="none" stroke="#555" stroke-width="1"/>
          <g id="Ellipse_61" data-name="Ellipse 61" transform="matrix(0.921, 0.391, -0.391, 0.921, 4901.051, 9751.616)" fill="#fff" stroke="#555" stroke-width="1">
            <ellipse cx="12.96" cy="13.493" rx="12.96" ry="13.493" stroke="none"/>
            <ellipse cx="12.96" cy="13.493" rx="12.46" ry="12.993" fill="none"/>
          </g>
          <g id="Ellipse_62" data-name="Ellipse 62" transform="matrix(0.921, 0.391, -0.391, 0.921, 4862.332, 9741.188)" fill="#fff" stroke="#555" stroke-width="1">
            <ellipse cx="13.246" cy="13.493" rx="13.246" ry="13.493" stroke="none"/>
            <ellipse cx="13.246" cy="13.493" rx="12.746" ry="12.993" fill="none"/>
          </g>
          <ellipse id="Ellipse_63" data-name="Ellipse 63" cx="2.346" cy="2.339" rx="2.346" ry="2.339" transform="matrix(0.921, 0.391, -0.391, 0.921, 4862.514, 9753.928)" fill="#555"/>
          <ellipse id="Ellipse_64" data-name="Ellipse 64" cx="2.346" cy="2.339" rx="2.346" ry="2.339" transform="matrix(0.921, 0.391, -0.391, 0.921, 4899.576, 9764.049)" fill="#555"/>
          <path id="Path_388" data-name="Path 388" d="M0,2.483C11.342,4.38,15.148,0,15.148,0" transform="translate(4883.695 9793.796) rotate(7)" fill="none" stroke="#555" stroke-linecap="round" stroke-width="1"/>
          <path id="Path_389" data-name="Path 389" d="M0,0S4.569-.023,10.879,3.982" transform="translate(4907.965 9750.334) rotate(7)" fill="none" stroke="#555" stroke-linecap="round" stroke-width="1"/>
          <path id="Path_390" data-name="Path 390" d="M0,.357S3.772-.979,10.368,1.519" transform="matrix(0.899, -0.438, 0.438, 0.899, 4863.545, 9746.212)" fill="none" stroke="#555" stroke-linecap="round" stroke-width="1"/>
          <path id="Path_391" data-name="Path 391" d="M0,.11S4.833-1.04,5.679,4.084C6.443,8.9.242,9.784.167,9.835" transform="matrix(0.883, 0.469, -0.469, 0.883, 4925.52, 9781.479)" fill="#fac9a5" stroke="#555" stroke-width="1"/>
          <line id="Line_18" data-name="Line 18" x1="10.133" y1="1.747" transform="translate(4890.678 9878.56)" fill="none" stroke="#555" stroke-width="1"/>
          <g id="Group_36" data-name="Group 36" transform="translate(4886.285 9818.654)">
            <path id="Path_409" data-name="Path 409" d="M5.556,3.931a3.276,3.276,0,0,1-.389,1.612,2.723,2.723,0,0,1-1.118,1.1,3.566,3.566,0,0,1-1.716.393H0V.856H2.332a3.626,3.626,0,0,1,1.721.384A2.681,2.681,0,0,1,5.167,2.324,3.251,3.251,0,0,1,5.556,3.931ZM2.2,5.7A1.888,1.888,0,0,0,3.56,5.232a1.714,1.714,0,0,0,.485-1.3,1.714,1.714,0,0,0-.485-1.3A1.888,1.888,0,0,0,2.2,2.166H1.494V5.7Zm8.831-1.232a2.061,2.061,0,0,1-.044.4H7.608a1.13,1.13,0,0,0,.28.791.9.9,0,0,0,.646.24.883.883,0,0,0,.55-.166A.775.775,0,0,0,9.373,5.3h1.581a2.066,2.066,0,0,1-.419.922,2.235,2.235,0,0,1-.821.638A2.6,2.6,0,0,1,8.6,7.093a2.62,2.62,0,0,1-1.271-.3,2.153,2.153,0,0,1-.869-.869A2.7,2.7,0,0,1,6.15,4.595a2.721,2.721,0,0,1,.31-1.332A2.125,2.125,0,0,1,7.329,2.4,2.645,2.645,0,0,1,8.6,2.1a2.644,2.644,0,0,1,1.275.3,2.1,2.1,0,0,1,.852.834A2.483,2.483,0,0,1,11.033,4.464ZM9.521,4.237a.9.9,0,0,0-.258-.721.949.949,0,0,0-.66-.24.978.978,0,0,0-.681.245,1.024,1.024,0,0,0-.306.716ZM13.583,2.1a2.236,2.236,0,0,1,1.481.463,2.012,2.012,0,0,1,.694,1.223h-1.4a.774.774,0,0,0-.275-.467.836.836,0,0,0-.537-.17.587.587,0,0,0-.384.109.381.381,0,0,0-.131.31.364.364,0,0,0,.24.341,3.831,3.831,0,0,0,.756.227,7.5,7.5,0,0,1,.917.266,1.513,1.513,0,0,1,.62.441,1.219,1.219,0,0,1,.262.821A1.259,1.259,0,0,1,15.6,6.4a1.5,1.5,0,0,1-.655.507,2.56,2.56,0,0,1-1.013.183,2.609,2.609,0,0,1-1.581-.437,1.843,1.843,0,0,1-.725-1.249h1.441a.649.649,0,0,0,.266.48,1,1,0,0,0,.6.166.557.557,0,0,0,.384-.118.4.4,0,0,0,.131-.31.373.373,0,0,0-.24-.363,4.417,4.417,0,0,0-.782-.231,6.252,6.252,0,0,1-.891-.245,1.471,1.471,0,0,1-.6-.424,1.18,1.18,0,0,1-.253-.8,1.3,1.3,0,0,1,.5-1.061A2.17,2.17,0,0,1,13.583,2.1ZM16.518.786a.729.729,0,0,1,.245-.563,1.049,1.049,0,0,1,1.293,0A.729.729,0,0,1,18.3.786a.719.719,0,0,1-.245.555,1.049,1.049,0,0,1-1.293,0A.719.719,0,0,1,16.518.786Zm1.633,1.371V7.032H16.658V2.158ZM21.035,2.1A1.765,1.765,0,0,1,22,2.35a1.523,1.523,0,0,1,.594.69V2.158h1.485V7.006a2.8,2.8,0,0,1-.262,1.227,2.01,2.01,0,0,1-.8.869,2.586,2.586,0,0,1-1.345.323,2.765,2.765,0,0,1-1.76-.52,2.115,2.115,0,0,1-.791-1.411h1.476a.74.74,0,0,0,.319.463,1.154,1.154,0,0,0,.651.166,1.047,1.047,0,0,0,.747-.266,1.121,1.121,0,0,0,.284-.852V6.15A1.523,1.523,0,0,1,22,6.84a1.765,1.765,0,0,1-.961.253,1.974,1.974,0,0,1-1.079-.3,2.062,2.062,0,0,1-.751-.869,3.012,3.012,0,0,1-.275-1.328A3.005,3.005,0,0,1,19.2,3.263a2.067,2.067,0,0,1,.751-.865A1.974,1.974,0,0,1,21.035,2.1Zm.48,1.31a1.006,1.006,0,0,0-.773.314,1.233,1.233,0,0,0-.293.874,1.233,1.233,0,0,0,.293.874,1.1,1.1,0,0,0,1.546-.009,1.217,1.217,0,0,0,.3-.865,1.214,1.214,0,0,0-.3-.869A1.017,1.017,0,0,0,21.515,3.407Zm6.683-1.3a1.687,1.687,0,0,1,1.332.559A2.242,2.242,0,0,1,30.023,4.2v2.83H28.529V4.376a1.074,1.074,0,0,0-.258-.764.9.9,0,0,0-.686-.275.933.933,0,0,0-.721.288,1.166,1.166,0,0,0-.266.821V7.032H25.105V2.158H26.6v.891a1.608,1.608,0,0,1,.625-.69A1.832,1.832,0,0,1,28.2,2.105Z" transform="matrix(0.998, 0.07, -0.07, 0.998, 0.657, 21.938)" fill="#f76d6d" opacity="0.8"/>
            <path id="Path_408" data-name="Path 408" d="M2.158,0V8.923H0V0Z" transform="matrix(0.998, 0.07, -0.07, 0.998, 2.063, 0)" fill="#f6876f"/>
            <path id="like" d="M5.22,1.707A2.747,2.747,0,0,1,7.739,0a2.908,2.908,0,0,1,2.747,2.845A2.831,2.831,0,0,1,10.4,3.921,4.755,4.755,0,0,1,8.948,6.337L5.22,9.663,1.555,6.337A4.754,4.754,0,0,1,.106,3.92,2.831,2.831,0,0,1,.017,2.845,2.908,2.908,0,0,1,2.764,0,2.662,2.662,0,0,1,5.22,1.707Z" transform="matrix(0.998, 0.07, -0.07, 0.998, 9.022, 0.32)" fill="#f6876f"/>
            <path id="Path_432" data-name="Path 432" d="M8.636.288,7.16,6.461H5.309l-.987-4.13-1,4.13H1.476L0,.288H1.624l.795,4.471L3.5.288H5.134L6.217,4.759,7.02.288Zm5.414,3.606a2.06,2.06,0,0,1-.044.4H10.626a1.129,1.129,0,0,0,.279.79.9.9,0,0,0,.646.24.883.883,0,0,0,.55-.166.775.775,0,0,0,.288-.428h1.58a2.065,2.065,0,0,1-.419.921,2.234,2.234,0,0,1-.821.637,2.8,2.8,0,0,1-2.379-.07,2.152,2.152,0,0,1-.869-.869,2.7,2.7,0,0,1-.314-1.327,2.72,2.72,0,0,1,.31-1.332,2.124,2.124,0,0,1,.869-.864,2.867,2.867,0,0,1,2.55,0,2.1,2.1,0,0,1,.851.834A2.482,2.482,0,0,1,14.049,3.894Zm-1.511-.227a.9.9,0,0,0-.258-.72.948.948,0,0,0-.659-.24.978.978,0,0,0-.681.244,1.024,1.024,0,0,0-.306.716Zm5.326-2.139a1.973,1.973,0,0,1,1.078.3,2.066,2.066,0,0,1,.751.864,3,3,0,0,1,.275,1.332,3.011,3.011,0,0,1-.275,1.327,2.061,2.061,0,0,1-.751.869,1.973,1.973,0,0,1-1.078.3,1.764,1.764,0,0,1-.96-.253,1.47,1.47,0,0,1-.585-.69v.882H14.826V0h1.493V2.471a1.47,1.47,0,0,1,.585-.69A1.764,1.764,0,0,1,17.865,1.528Zm-.48,1.31a1.016,1.016,0,0,0-.773.319,1.213,1.213,0,0,0-.3.869,1.217,1.217,0,0,0,.3.864,1.1,1.1,0,0,0,1.546.009,1.232,1.232,0,0,0,.293-.873,1.232,1.232,0,0,0-.293-.873A1.006,1.006,0,0,0,17.385,2.838Z" transform="matrix(0.998, 0.07, -0.07, 0.998, 0.933, 12.914)" fill="#f8886e"/>
          </g>
        </g>
        <g id="Group_64" data-name="Group 64">
          <path id="Path_428" data-name="Path 428" d="M7.609,3.63A11.633,11.633,0,0,0,9.321,0L15.7,2.385S13.709,4.86,13.425,5.369A6.65,6.65,0,0,1,8.559,12.1h0C6.98,13.739,5.4,17.69,5.406,17.674c-.146,1.608-1.025.548-1.025.548s-1.361,1.53,1.437-5.085C3.35,19.2,3.923,18.341,3.58,19.5s-1.252.13-1.2,0c.947-6.517,2.566-8.422,2.566-8.422s-2.973,4.447-3.117,7.238c-2.426,1.076.937-8.34.937-8.34s-.441.918-1.914,5.079C.56,16.2,0,15.09,0,15.09S-.286,9.8,7.609,3.63Z" transform="translate(4806.41 9777.664) rotate(-139)" fill="#ddd8cf" stroke="#555" stroke-width="1"/>
          <path id="Path_419" data-name="Path 419" d="M7.817,3.66C7.679,3.957,5.96-.327,5.394.02,4.577.524,1.461,2.906.008,3.742c-.131.08,1.374,2.813,1.132,2.786a15.727,15.727,0,0,0,5.5,9.192c1.05-1.926-1.178-1.2-1.513-4.565,2.854,3.818,4.018,10.008,4.013,9.99.135,1.724,1.159.893,1.159.893s.765-2.43-1.823-9.524a89.681,89.681,0,0,1,2.856,8.855c.317,1.238-2.174-7.866-2.222-8.005C9.108,13.364,7.589,12.2,7.817,3.66Z" transform="translate(4616.605 9771.762) rotate(151)" fill="#ddd8cf" stroke="#555" stroke-width="1"/>
          <g id="Rectangle_15" data-name="Rectangle 15" transform="translate(4754.641 9985.995) rotate(-14)" fill="#fff" stroke="#555" stroke-width="1">
            <rect width="5.69" height="6.208" stroke="none"/>
            <rect x="0.5" y="0.5" width="4.69" height="5.208" fill="none"/>
          </g>
          <g id="Rectangle_16" data-name="Rectangle 16" transform="matrix(1, 0, 0, 1, 4705.102, 9988.832)" fill="#fff" stroke="#555" stroke-width="1">
            <rect width="5.69" height="6.208" stroke="none"/>
            <rect x="0.5" y="0.5" width="4.69" height="5.208" fill="none"/>
          </g>
          <path id="Path_311" data-name="Path 311" d="M5.852,0,7.136,2.875.955,5.808,0,3.2Z" transform="matrix(-0.017, -1, 1, -0.017, 4793.678, 9772.567)" fill="#8adbdb" stroke="#555" stroke-width="1"/>
          <path id="Path_401" data-name="Path 401" d="M6.991,0,8.275,2.875.955,6.231,0,3.62Z" transform="translate(4618.875 9772.687) rotate(150)" fill="#8adbdb" stroke="#555" stroke-width="1"/>
          <path id="Path_312" data-name="Path 312" d="M-3243.31-9106.24l13.593-3.76,16.4,22.982,12.452,65.747-27.489,6.728-8.324-5.959Z" transform="translate(7934.273 18856.418)" fill="#7893c3" stroke="#555" stroke-width="1"/>
          <path id="Path_298" data-name="Path 298" d="M-542.619-1103.411h39.7s.016-23.846,0-23.825c.016-.021-7.095-16.118-7.507-16.736h-23.47l-3.888,6.586Z" transform="translate(5237.4 10994.4)" fill="#d6e8f2" stroke="#555" stroke-width="1"/>
          <path id="Path_297" data-name="Path 297" d="M-3187.448-8527.564s-1.7,63.729-.65,76.309,5.345,72.4,5.345,72.4,7.794,1.512,7.8,1.625l-1.676-76.212,1.676-63.852c.021-.061,7.959-.979,7.959-.979s9.19,56.385,11.465,64.831,23.146,72.917,23.146,72.917h7.693l-18.819-72.917-8.517-76.63S-3167.156-8522.1-3187.448-8527.564Z" transform="translate(7886.586 18368.26)" fill="#555" stroke="#505050" stroke-linecap="round" stroke-linejoin="round" stroke-width="1"/>
          <path id="Path_323" data-name="Path 323" d="M-3270.542-8647.361c-2.3,7.041-6.955,1.406-6.955,1.406l-1.792-7.933,6.827-1.452S-3270.542-8647.446-3270.542-8647.361Z" transform="translate(7971.773 18395.48)" fill="#ddd8cf" stroke="#555" stroke-width="1"/>
          <path id="Path_324" data-name="Path 324" d="M-3302.817-8744.087s-7.589-3.913-5.727-15.8c4.624,6.042,8.286,4.755,8.286,4.755s-.335-17.659,8.043-23.4c.753,9.793,5.484,10.358,5.484,10.358s7.759-16.144,26.322-17.546c-7.891,12.578-5.606,15.6-5.606,15.6s12.425-11.238,35.705-4.629c-16.719,5.143-17.913,14.864-17.913,14.864s17.779.662,24.25,10.236c-16.782,1.386-21.325,7.558-21.325,7.558s7.644,8.972,15.354,13.771c-5.548,2.627-17.548,3.776-17.548,3.776s5.584,8.658,9.87,12.795c-4,4.01-18.521,5-18.521,5l5.385,5.558-10.138,1.146,4.753,4.142-7.434.853Z" transform="translate(7972.912 18423.609)" fill="#d6e8f2" stroke="#555" stroke-width="1"/>
          <path id="Union_6" data-name="Union 6" d="M11.273,77.752c-5.688-5.329-8.6-25.782-8.6-25.782S2.648,48.59,3,43.619a5.269,5.269,0,0,1,1.066-9.885C5.381,24.9,7.923,14.946,12.853,8.98,30.382-10.606,54.1,5.887,56.06,20.145a95.151,95.151,0,0,1-.181,21.714A5.27,5.27,0,0,1,54.317,51.9c-2.184,10.729-6.052,20.821-12.087,25.85A28.266,28.266,0,0,1,26.14,82.877C19.871,82.877,14.4,80.691,11.273,77.752Z" transform="translate(4664.299 9662.869)" fill="#ddd8cf" stroke="#555" stroke-width="1"/>
          <g id="Ellipse_53" data-name="Ellipse 53" transform="matrix(0.899, 0.438, -0.438, 0.899, 4700.107, 9681.081)" fill="#fff" stroke="#555" stroke-width="1">
            <ellipse cx="8.195" cy="8.872" rx="8.195" ry="8.872" stroke="none"/>
            <ellipse cx="8.195" cy="8.872" rx="7.695" ry="8.372" fill="none"/>
          </g>
          <g id="Ellipse_54" data-name="Ellipse 54" transform="matrix(0.899, 0.438, -0.438, 0.899, 4673.316, 9676.774)" fill="#fff" stroke="#555" stroke-width="1">
            <ellipse cx="8.709" cy="8.872" rx="8.709" ry="8.872" stroke="none"/>
            <ellipse cx="8.709" cy="8.872" rx="8.209" ry="8.372" fill="none"/>
          </g>
          <path id="Path_339" data-name="Path 339" d="M33.9,3.952s2.143.075,1.477,1.418C10.2,23.02.146,1.738.146,1.738S-.658-.48,1.5.1C15.687,15.185,33.9,3.952,33.9,3.952Z" transform="translate(4711.762 9681.944) rotate(180)" fill="#d6e8f2" stroke="#555" stroke-width="1"/>
          <ellipse id="Ellipse_55" data-name="Ellipse 55" cx="1.543" cy="1.538" rx="1.543" ry="1.538" transform="matrix(0.899, 0.438, -0.438, 0.899, 4671.967, 9685.146)" fill="#555"/>
          <ellipse id="Ellipse_56" data-name="Ellipse 56" cx="1.543" cy="1.538" rx="1.543" ry="1.538" transform="matrix(0.899, 0.438, -0.438, 0.899, 4699.947, 9688.906)" fill="#555"/>
          <path id="Path_342" data-name="Path 342" d="M.814,0a3.011,3.011,0,1,1,0,6.021C-.849,6.021.55,4.674.55,3.011S-.849,0,.814,0Z" transform="translate(4718.967 9706.725) rotate(30)" fill="#bcbcbc"/>
          <path id="Path_314" data-name="Path 314" d="M-3266.453-8529.381c0-.018-.023-6.716,0-6.755,6.567,6.467,32.987,1.3,34.411-1.278.125.143,1.009,5.526,1.009,5.526S-3246.162-8523.917-3266.453-8529.381Z" transform="translate(7964.088 18370.832)" fill="#555" stroke="#555" stroke-linecap="round" stroke-linejoin="round" stroke-width="1"/>
          <path id="Path_304" data-name="Path 304" d="M-598.33-1256.68c-.125,0-18.534,19.756-22.98,20.292s-38.009-11.985-38.1-12.006c-.385,4.941-5.1,7.779-5.1,7.779s35.3,15.1,43.855,13.911,31.455-24.131,31.455-24.131,12.435,80.111,8.583,125.636v.418s7.031-27.6,6.022-41.833c.052-.134,0-9.882,0-9.882-.52-36.616-6.775-47.149-9.359-86.314-.039-.566,0-3.486,0-3.486l-4.737,1.345A55.134,55.134,0,0,0-598.33-1256.68Z" transform="translate(5275.539 11016.254)" fill="#fff" stroke="#505050" stroke-width="1"/>
          <path id="Union_4" data-name="Union 4" d="M27.7,89.673C18.875,59.565,21.952,46.227,0,1.947,0,1.935,1.4.676,7.5.032a6.713,6.713,0,0,1,3.806.8,33.152,33.152,0,0,1,4.444,2c.8.608,3.993,1.8,9.908,7.953.133,0,22.18,22.978,25.459,23.4s40.211-14.4,40.312-14.422A16.238,16.238,0,0,0,95.66,28.9s-39.992,17.139-45.7,16.187c-4.263-.71-20.854-15.912-29-23.582,3.923,21.033,11.351,63.75,13.649,97.021C34.6,118.525,30.893,99.978,27.7,89.673Z" transform="translate(4702.852 9744.895)" fill="#fff" stroke="#555" stroke-width="1"/>
          <g id="Group_24" data-name="Group 24" transform="translate(4579.961 9736.105) rotate(15)">
            <path id="Path_5" data-name="Path 5" d="M38.99,9.695c.053-.106-3.232,5.775-3.232,5.775a2.214,2.214,0,0,1-1.324-.53A64.578,64.578,0,0,0,27.389,8.37s-2.821-1.548-4.378,0a4.148,4.148,0,0,1-2.24,1.177L4.344,9.695,0,6.675V0H22.727a3.871,3.871,0,0,1,2.437,1.165C25.189,1.177,28.448,4.98,38.99,9.695Z" transform="translate(0 13.624)" fill="#e6e6e6" stroke="#555" stroke-width="1"/>
            <path id="Path_6" data-name="Path 6" d="M35.837,7.4c.053-.106-.778,1.458-.778,1.458s.076.346-.624-.206a64.586,64.586,0,0,0-7.046-6.569s-2.82-1.547-4.378,0a4.148,4.148,0,0,1-2.24,1.178L4.344,3.4,0,.385l23.011.1a5.278,5.278,0,0,1,4.378,0C29.625,1.572,30.315,4.21,35.837,7.4Z" transform="translate(0.564 19.614)" fill="#ccc"/>
            <path id="Path_7" data-name="Path 7" d="M21.943,1.568A5.825,5.825,0,0,0,25.673,0C25.448,2.817,22.1,2.79,22.1,2.79H0V1.568Z" transform="translate(0.655 16.958)" fill="#ccc"/>
            <path id="Path_8" data-name="Path 8" d="M3.256,3.548s.628-.759.628-.774A14.5,14.5,0,0,0,.628,0L0,.774Z" transform="translate(24.622 13.546)" fill="#555"/>
            <path id="Path_9" data-name="Path 9" d="M7.632,13.623V3.07A4,4,0,0,0,3.641,0,3.556,3.556,0,0,0,0,3.07V13.623Z" transform="translate(11.31 0)" fill="#75e45c"/>
            <ellipse id="Ellipse_3" data-name="Ellipse 3" cx="0.709" cy="0.709" rx="0.709" ry="0.709" transform="translate(1.896 15.85)" fill="#fff"/>
            <ellipse id="Ellipse_4" data-name="Ellipse 4" cx="0.709" cy="0.709" rx="0.709" ry="0.709" transform="translate(4.377 15.85)" fill="#fff"/>
            <ellipse id="Ellipse_5" data-name="Ellipse 5" cx="0.709" cy="0.709" rx="0.709" ry="0.709" transform="translate(6.858 15.85)" fill="#fff"/>
          </g>
          <path id="Path_302" data-name="Path 302" d="M6.609,15.246C4.334,12.948,1.124,3.862,0,0,6.147.514,10.167,6.06,10.167,6.06l2.153,6.272S8.333,16.963,6.609,15.246Z" transform="matrix(0.309, -0.951, 0.951, 0.309, 4746.367, 9997.744)" fill="#505050"/>
          <path id="Path_434" data-name="Path 434" d="M4.651,11.2C2.376,8.9,1.124,4.049,0,.187,5.8-.9,7.5,3.124,7.5,3.124L9.65,9.4S6.376,12.914,4.651,11.2Z" transform="matrix(0.309, -0.951, 0.951, 0.309, 4699.211, 9998.549)" fill="#505050"/>
          <path id="Path_368" data-name="Path 368" d="M960.545,318.065s-4.714,7.041-1.373,7.817,5.191-6.624,5.191-6.624" transform="translate(3727.822 9375.747)" fill="none" stroke="#555" stroke-width="1"/>
          <path id="Path_393" data-name="Path 393" d="M976.311,457.2s.946-3.607-.951-5.5" transform="translate(3730.377 9380.59)" fill="none" stroke="#555" stroke-width="1"/>
          <path id="Path_395" data-name="Path 395" d="M976.305,457.16a5.789,5.789,0,0,1-.641-3.964" transform="translate(3748.896 9378.575)" fill="none" stroke="#555" stroke-width="1"/>
          <path id="Path_394" data-name="Path 394" d="M976.36,457.268s-.151-5.809-2.716-7.85" transform="translate(3727.242 9380.525)" fill="none" stroke="#555" stroke-width="1"/>
          <path id="Path_396" data-name="Path 396" d="M24.725,5.38C36.477,5.2,47.311.9,47.311,6.609,47.428,15.472,36.7,21.445,22.7,21.445S-1.339,8.954.146,5.729C6.4-7.049,12.973,5.565,24.725,5.38Z" transform="translate(4665.398 9716.143) rotate(-3)" fill="#555"/>
          <g id="Group_31" data-name="Group 31" transform="matrix(0.995, -0.105, 0.105, 0.995, 4672.434, 9726.867)">
            <path id="Path_327" data-name="Path 327" d="M3.777,0s-5.2.985-3.4,2.926,5.114-.859,5.114-.859Z" transform="translate(6.557 3.158) rotate(151)" fill="#fff"/>
            <path id="Path_329" data-name="Path 329" d="M4.264,0S-1.453.473.353,2.414s5.123-.2,5.123-.2Z" transform="translate(11.346 4.492) rotate(137)" fill="#fff"/>
            <path id="Path_331" data-name="Path 331" d="M3.838,0S-1.429.582.377,2.523s5.179-.456,5.179-.456Z" transform="translate(16.195 6.323) rotate(130)" fill="#fff"/>
            <path id="Path_333" data-name="Path 333" d="M3.2,0S-.845.073.161,2.294s3.875.08,3.875.08Z" transform="translate(20.536 7.073) rotate(120)" fill="#fff"/>
            <path id="Path_335" data-name="Path 335" d="M3.048,0S-.84-.048.166,2.173s3.719.2,3.719.2Z" transform="translate(25.924 6.927) rotate(120)" fill="#fff"/>
            <path id="Path_337" data-name="Path 337" d="M3.048,0S-.84-.048.166,2.173s3.719.2,3.719.2Z" transform="translate(30.795 4.981) rotate(95)" fill="#fff"/>
          </g>
          <g id="Group_32" data-name="Group 32" transform="matrix(-0.995, 0.105, -0.105, -0.995, 4703.465, 9723.18)">
            <path id="Path_327-2" data-name="Path 327" d="M3.777,0s-5.2.985-3.4,2.926,5.114-.859,5.114-.859Z" transform="translate(5.407 1.353) rotate(112)" fill="#fff"/>
            <path id="Path_329-2" data-name="Path 329" d="M4.264,0S-1.453.473.353,2.414s5.123-.2,5.123-.2Z" transform="matrix(-0.259, 0.966, -0.966, -0.259, 8.907, 1.207)" fill="#fff"/>
            <path id="Path_331-2" data-name="Path 331" d="M3.838,0S-1.429.582.377,2.523s5.179-.456,5.179-.456Z" transform="translate(12.863 1.376) rotate(106)" fill="#fff"/>
            <path id="Path_333-2" data-name="Path 333" d="M3.2,0S-.845.073.161,2.294s3.875.08,3.875.08Z" transform="translate(17.904 2.242) rotate(120)" fill="#fff"/>
            <path id="Path_335-2" data-name="Path 335" d="M3.048,0S-.84-.048.166,2.173s3.719.2,3.719.2Z" transform="translate(22.263 3.125) rotate(120)" fill="#fff"/>
            <path id="Path_337-2" data-name="Path 337" d="M3.048,0S-.84-.048.166,2.173s3.719.2,3.719.2Z" transform="matrix(-0.682, 0.731, -0.731, -0.682, 25.807, 5.735)" fill="#fff"/>
          </g>
          <path id="Subtraction_11" data-name="Subtraction 11" d="M26.523,24.8c-.9,0-1.812-.024-2.724-.072A27.823,27.823,0,0,1,9.57,19.75a27.775,27.775,0,0,1-8.276-8.622C.111,9.049-.285,7.32.206,6.385,2.663,1.969,5.134,0,8.219,0c2.245,0,4.592,1.017,7.31,2.194,3.3,1.431,7.047,3.052,11.576,3.218,1.437.052,3.011.078,4.811.078,1.36,0,2.689-.014,3.862-.026H35.9c1.223-.013,2.378-.025,3.5-.025,5.654,0,9.487.347,11.127,2.074a3.211,3.211,0,0,1,.844,2.512,11.343,11.343,0,0,1-2.079,6.126,16.173,16.173,0,0,1-5.269,4.657,28.192,28.192,0,0,1-7.806,2.96A43.39,43.39,0,0,1,26.523,24.8ZM9.567,3.067h0c-2.253,0-4.135,1.373-5.922,4.318-.26.425-.11,1.216.423,2.227,2.058,3.905,10.056,11.418,20.063,11.942.989.052,1.973.078,2.925.078,11.751,0,19.195-3.788,19.426-9.885a2.171,2.171,0,0,0-.6-1.693C44.127,8.207,38.778,8.2,32.586,8.2c-2.254,0-4.584,0-6.909-.091-3.84-.146-7.034-1.657-9.851-2.99-2.327-1.1-4.336-2.052-6.258-2.052Z" transform="matrix(0.995, -0.105, 0.105, 0.995, 4662.9, 9715.201)" fill="#ddd8cf"/>
          <path id="Path_399" data-name="Path 399" d="M0,0C3.54.524,6.989.4,6.857,4.336s-4.74,8.471-4.74,8.471" transform="matrix(0.995, -0.105, 0.105, 0.995, 4705.107, 9718.128)" fill="none" stroke="#555" stroke-linecap="round" stroke-width="1"/>
          <path id="Path_400" data-name="Path 400" d="M7.192,0S.8,1.18.055,6.239s6.428,10.6,6.428,10.6" transform="matrix(0.995, -0.105, 0.105, 0.995, 4662.863, 9715.878)" fill="none" stroke="#555" stroke-linecap="round" stroke-width="1"/>
          <g id="Group_37" data-name="Group 37" transform="translate(4693.08 9767.189)">
            <text id="I_m_with_stupid" data-name="I&apos;m
with
stupid" transform="translate(0.743 10.834) rotate(-5)" fill="#fff" font-size="8" font-family="Poppins-Bold, Poppins" font-weight="700"><tspan x="0" y="0">I&apos;m</tspan><tspan x="0" y="8">with</tspan><tspan x="0" y="16">stupid</tspan></text>
            <g id="Group_35" data-name="Group 35" transform="translate(25.425 33.878) rotate(180)">
              <rect id="Rectangle_14" data-name="Rectangle 14" width="15.354" height="1.194" transform="matrix(0.998, -0.07, 0.07, 0.998, 2.871, 1.971)" fill="#fff"/>
              <path id="Path_414" data-name="Path 414" d="M1.042,0l2.7,2.592L0,3.633Z" transform="translate(2.384 0) rotate(41)" fill="#fff"/>
            </g>
          </g>
          <path id="Path_415" data-name="Path 415" d="M17543.818-1835.322l.148,4.541s-.041,4.04,1.346,4.038.742-3.23.742-3.23-.459-2.346,1.2-3.357,2.33.306,2.33.306.232,2.832,1.838,2.243,1.029-4.106,1.029-4.106Z" transform="translate(-12862.256 11568.939)" fill="#bbffb1" stroke="#555" stroke-width="1"/>
          <path id="Path_416" data-name="Path 416" d="M17544.119-1824.984c-.135,1.053-.041,4.04,1.346,4.038s.742-3.23.742-3.23.324-.781-.2-.982S17544.256-1826.037,17544.119-1824.984Z" transform="translate(-12858.752 11565.579)" fill="#bbffb1" stroke="#555" stroke-width="1"/>
          <path id="Path_425" data-name="Path 425" d="M1.419.2S.01,0,.01,0a.662.662,0,0,0,.4.744A4.074,4.074,0,0,0,1.822.852C3.171.6,1.423-.257,1.419.2Z" transform="matrix(-0.978, 0.208, -0.208, -0.978, 4606.928, 9770.449)" fill="#ddd8cf" stroke="#555" stroke-width="1"/>
          <path id="Path_429" data-name="Path 429" d="M17848.654-1763.265s2.648,1.406,2.7,1.877.258.479-1.014.526c-.434.016-1.9-.821-2.781-1a5.105,5.105,0,0,0-2.27,0" transform="translate(-13040.861 11526.151)" fill="none" stroke="#555" stroke-width="1"/>
          <line id="Line_19" data-name="Line 19" y1="1.625" x2="9.343" transform="translate(4715.148 9848.905)" fill="none" stroke="#555" stroke-width="1"/>
          <path id="Path_315" data-name="Path 315" d="M-548.069-1200.752s-2.071-18.431-4.76-34.513-3.26-26.026-3.26-26.026l-7.769,19.212,6.217,5.986-4.707,8.48,14.278,26.86" transform="translate(5248.029 11019.5)" fill="#fff" stroke="#555" stroke-width="1"/>
          <path id="Path_316" data-name="Path 316" d="M0,55.446A152.612,152.612,0,0,0,4.341,31.22C5.713,17.386,6.121,0,6.121,0l9.038,20.431-7.318,4.25,4.967,8.082L0,55.446" transform="matrix(0.914, -0.407, 0.407, 0.914, 4701.783, 9757.838)" fill="#fff" stroke="#555" stroke-width="1"/>
          <path id="Path_447" data-name="Path 447" d="M10095.553-3538.4a5.072,5.072,0,0,0,3.839,3.389c3.214.8,5.884-1.464,6.648-2.229" transform="translate(-5981.549 10689.344) rotate(14)" fill="none" stroke="#555" stroke-linecap="round" stroke-width="1"/>
          <path id="Path_446" data-name="Path 446" d="M10095.553-3538.4s.858,1.985,4.072,2.786a6.975,6.975,0,0,0,6.415-1.625" transform="translate(-5891.292 11249.694) rotate(11)" fill="none" stroke="#555" stroke-linecap="round" stroke-width="1"/>
        </g>
      </g>
      <g id="Group_1306" data-name="Group 1306" transform="translate(2196.5 1226) rotate(180)" opacity="0.32">
        <line id="Line_20" data-name="Line 20" x2="83.416" transform="translate(1149.223 613.5)" fill="none" stroke="#555" stroke-width="2"/>
        <line id="Line_21" data-name="Line 21" x2="152.178" transform="translate(974.5 613.5)" fill="none" stroke="#555" stroke-width="2"/>
        <line id="Line_22" data-name="Line 22" x2="59.744" transform="translate(1259.693 613.5)" fill="none" stroke="#555" stroke-width="2"/>
        <line id="Line_23" data-name="Line 23" x2="21.418" transform="translate(1329.582 613.5)" fill="none" stroke="#555" stroke-width="2"/>
      </g>
    </g>
    <path id="Path_2076" data-name="Path 2076" d="M6304.756,12927.259c-12.529,6.438-116.861-29.2-138.6-33.873s-20.114-25.045,13.305-27.823,82.76,43.348,124.2,46.013C6312.276,12919.245,6308.239,12921.849,6304.756,12927.259Z" transform="translate(-4044.626 -13393.805) rotate(7)" opacity="0.04"/>
    <path id="Path_2077" data-name="Path 2077" d="M6190.107,12911.4c19.568-4.782,34.618-18.728,43.652-30.206s11.359-14.144-7.514-15.713-61.105,14.5-70.14,25.984S6170.539,12916.182,6190.107,12911.4Z" transform="translate(-3679.761 -13133.289) rotate(9)" opacity="0.04"/>
    <path id="Path_2078" data-name="Path 2078" d="M6174.438,12880.771c-11.052-2.7-19.95-11.51-24.653-17.06s-25.419-22.513-7.946-23.2c34.154,18.137,61.473,11.727,66.575,18.21S6185.49,12883.472,6174.438,12880.771Z" transform="translate(14315.266 1245.98) rotate(120)" opacity="0.04"/>
  </g>
</svg>
